<?xml version="1.0" encoding="UTF-8" standalone="no"?>
<!-- Created with Inkscape (http://www.inkscape.org/) -->

<svg
   xmlns:dc="http://purl.org/dc/elements/1.1/"
   xmlns:cc="http://creativecommons.org/ns#"
   xmlns:rdf="http://www.w3.org/1999/02/22-rdf-syntax-ns#"
   xmlns:svg="http://www.w3.org/2000/svg"
   xmlns="http://www.w3.org/2000/svg"
   xmlns:sodipodi="http://sodipodi.sourceforge.net/DTD/sodipodi-0.dtd"
   xmlns:inkscape="http://www.inkscape.org/namespaces/inkscape"
   width="16in"
   height="12in"
   viewBox="0 0 1440 1080"
   id="svg2"
   version="1.1"
   inkscape:version="0.91 r13725"
   sodipodi:docname="rollerwheel-doublesupports.svg">
  <defs
     id="defs4">
    <marker
       style="overflow:visible"
       refY="0.0"
       refX="0.0"
       orient="auto"
       id="DistanceX">
      <path
         id="path3443"
         style="stroke:#000000; stroke-width:0.5"
         d="M 3,-3 L -3,3 M 0,-5 L  0,5" />
    </marker>
    <pattern
       y="0"
       x="0"
       width="8"
       patternUnits="userSpaceOnUse"
       id="Hatch"
       height="8">
      <path
         id="path3446"
         stroke-width="0.25"
         stroke="#000000"
         linecap="square"
         d="M8 4 l-4,4" />
      <path
         id="path3448"
         stroke-width="0.25"
         stroke="#000000"
         linecap="square"
         d="M6 2 l-4,4" />
      <path
         id="path3450"
         stroke-width="0.25"
         stroke="#000000"
         linecap="square"
         d="M4 0 l-4,4" />
    </pattern>
  </defs>
  <sodipodi:namedview
     id="base"
     pagecolor="#ffffff"
     bordercolor="#666666"
     borderopacity="1.0"
     inkscape:pageopacity="0.0"
     inkscape:pageshadow="2"
     inkscape:zoom="0.69626163"
     inkscape:cx="785.35962"
     inkscape:cy="604.83403"
     inkscape:document-units="mm"
     inkscape:current-layer="layer1"
     showgrid="false"
     units="in"
     showborder="true"
     borderlayer="true"
     inkscape:showpageshadow="false"
     inkscape:window-width="1855"
     inkscape:window-height="1176"
     inkscape:window-x="65"
     inkscape:window-y="24"
     inkscape:window-maximized="1" />
  <metadata
     id="metadata7">
    <rdf:RDF>
      <cc:Work
         rdf:about="">
        <dc:format>image/svg+xml</dc:format>
        <dc:type
           rdf:resource="http://purl.org/dc/dcmitype/StillImage" />
        <dc:title></dc:title>
      </cc:Work>
    </rdf:RDF>
  </metadata>
  <g
     inkscape:label="Layer 1"
     inkscape:groupmode="layer"
     id="layer1"
     transform="translate(0,27.637855)">
    <path
       id="path3454"
       style="fill:none;stroke:#000000"
       d="m 1187.7799,270.21687 -0.3323,-0.10082 -0.3063,-0.16372 -0.2685,-0.22033 -0.2203,-0.26847 -0.1637,-0.30629 -0.1009,-0.33235 -0.034,-0.34564 0.034,-0.34563 0.1009,-0.33235 0.1637,-0.30629 0.2203,-0.26847 0.2685,-0.22033 0.3063,-0.16372 0.3323,-0.10082 0.3456,-0.034 0.3457,0.034 0.3323,0.10082 0.3063,0.16372 0.2685,0.22033 0.2203,0.26847 0.1637,0.30629 0.1009,0.33235 0.034,0.34563 5.3149,0 0.034,-0.34563 0.1008,-0.33235 0.1637,-0.30629 0.2204,-0.26847 0.2684,-0.22033 0.3063,-0.16372 0.3324,-0.10082 0.3456,-0.034 0.3457,0.034 0.3323,0.10082 0.3063,0.16372 0.2685,0.22033 0.2203,0.26847 0.1637,0.30629 0.1008,0.33235 0.034,0.34563 -0.034,0.34564 -0.1008,0.33235 -0.1637,0.30629 -0.2203,0.26847 -0.2685,0.22033 -0.3063,0.16372 -0.3323,0.10082 -0.3457,0.034 0,15.94488 35.4331,0 0,-35.43307 -194.8819,0 0,35.43307 26.5748,0 0,-15.94488 -0.3456,-0.034 -0.3324,-0.10082 -0.3063,-0.16372 -0.2684,-0.22033 -0.2204,-0.26847 -0.1637,-0.30629 -0.1008,-0.33235 -0.034,-0.34564 0.034,-0.34563 0.1008,-0.33235 0.1637,-0.30629 0.2204,-0.26847 0.2684,-0.22033 0.3063,-0.16372 0.3324,-0.10082 0.3456,-0.034 0.3456,0.034 0.3324,0.10082 0.3063,0.16372 0.2685,0.22033 0.2203,0.26847 0.1637,0.30629 0.1008,0.33235 0.034,0.34563 5.315,0 0.034,-0.34563 0.1008,-0.33235 0.1637,-0.30629 0.2203,-0.26847 0.2685,-0.22033 0.3063,-0.16372 0.3324,-0.10082 0.3456,-0.034 0.3456,0.034 0.3324,0.10082 0.3063,0.16372 0.2684,0.22033 0.2204,0.26847 0.1637,0.30629 0.1008,0.33235 0.034,0.34563 -0.034,0.34564 -0.1008,0.33235 -0.1637,0.30629 -0.2204,0.26847 -0.2684,0.22033 -0.3063,0.16372 -0.3324,0.10082 -0.3456,0.034 0,15.94488 115.1575,0 0,-15.94488 -0.3457,-0.034 0,0 z"
       inkscape:connector-curvature="0" />
    <path
       id="path3456"
       style="fill:none;stroke:#000000"
       d="m 1228.9883,330.09906 0,-35.43308 -194.8819,0 0,35.43308 26.5748,0 0,-15.94489 -0.3456,-0.034 -0.3324,-0.10082 -0.3062,-0.16371 -0.2685,-0.22033 -0.2203,-0.26847 -0.1638,-0.3063 -0.1008,-0.33235 -0.034,-0.34563 0.034,-0.34563 0.1008,-0.33235 0.1638,-0.3063 0.2203,-0.26847 0.2685,-0.22033 0.3062,-0.16371 0.3324,-0.10082 0.3456,-0.034 0.3457,0.034 0.3323,0.10082 0.3063,0.16371 0.2685,0.22033 0.2203,0.26847 0.1637,0.3063 0.1008,0.33235 0.034,0.34563 5.315,0 0.034,-0.34563 0.1008,-0.33235 0.1637,-0.3063 0.2204,-0.26847 0.2684,-0.22033 0.3063,-0.16371 0.3324,-0.10082 0.3456,-0.034 0.3456,0.034 0.3324,0.10082 0.3063,0.16371 0.2685,0.22033 0.2203,0.26847 0.1637,0.3063 0.1008,0.33235 0.034,0.34563 -0.034,0.34563 -0.1008,0.33235 -0.1637,0.3063 -0.2203,0.26847 -0.2685,0.22033 -0.3063,0.16371 -0.3324,0.10082 -0.3456,0.034 0,15.94489 115.1575,0 0,-15.94489 -0.3456,-0.034 -0.3324,-0.10082 -0.3063,-0.16371 -0.2685,-0.22033 -0.2203,-0.26847 -0.1637,-0.3063 -0.1008,-0.33235 -0.034,-0.34563 0.034,-0.34563 0.1008,-0.33235 0.1637,-0.3063 0.2203,-0.26847 0.2685,-0.22033 0.3063,-0.16371 0.3324,-0.10082 0.3456,-0.034 0.3456,0.034 0.3324,0.10082 0.3063,0.16371 0.2684,0.22033 0.2204,0.26847 0.1637,0.3063 0.1008,0.33235 0.034,0.34563 5.315,0 0.034,-0.34563 0.1008,-0.33235 0.1637,-0.3063 0.2203,-0.26847 0.2685,-0.22033 0.3063,-0.16371 0.3323,-0.10082 0.3457,-0.034 0.3456,0.034 0.3324,0.10082 0.3063,0.16371 0.2684,0.22033 0.2204,0.26847 0.1637,0.3063 0.1008,0.33235 0.034,0.34563 -0.034,0.34563 -0.1008,0.33235 -0.1637,0.3063 -0.2204,0.26847 -0.2684,0.22033 -0.3063,0.16371 -0.3324,0.10082 -0.3456,0.034 0,15.94489 35.433,0 0,0 z"
       inkscape:connector-curvature="0" />
    <path
       id="path3458"
       style="fill:none;stroke:#000000"
       d="m 1072.9807,151.29397 0,-35.43307 -194.88195,0 0,35.43307 26.5748,0 0,-15.94488 -0.34563,-0.034 -0.33235,-0.10082 -0.30629,-0.16372 -0.26847,-0.22032 -0.22033,-0.26847 -0.16372,-0.3063 -0.10082,-0.33235 -0.034,-0.34563 0.034,-0.34563 0.10082,-0.33235 0.16372,-0.3063 0.22033,-0.26847 0.26847,-0.22033 0.30629,-0.16372 0.33235,-0.10081 0.34563,-0.034 0.34564,0.034 0.33235,0.10081 0.30629,0.16372 0.26847,0.22033 0.22033,0.26847 0.16372,0.3063 0.10082,0.33235 0.034,0.34563 5.31496,0 0.034,-0.34563 0.10082,-0.33235 0.16372,-0.3063 0.22032,-0.26847 0.26847,-0.22033 0.3063,-0.16372 0.33235,-0.10081 0.34563,-0.034 0.34563,0.034 0.33235,0.10081 0.3063,0.16372 0.26847,0.22033 0.22033,0.26847 0.16372,0.3063 0.10081,0.33235 0.034,0.34563 -0.034,0.34563 -0.10081,0.33235 -0.16372,0.3063 -0.22033,0.26847 -0.26847,0.22032 -0.3063,0.16372 -0.33235,0.10082 -0.34563,0.034 0,15.94488 115.15756,0 0,-15.94488 -0.3457,-0.034 -0.3323,-0.10082 -0.3063,-0.16372 -0.2685,-0.22032 -0.2203,-0.26847 -0.1637,-0.3063 -0.1008,-0.33235 -0.034,-0.34563 0.034,-0.34563 0.1008,-0.33235 0.1637,-0.3063 0.2203,-0.26847 0.2685,-0.22033 0.3063,-0.16372 0.3323,-0.10081 0.3457,-0.034 0.3456,0.034 0.3323,0.10081 0.3063,0.16372 0.2685,0.22033 0.2203,0.26847 0.1638,0.3063 0.1008,0.33235 0.034,0.34563 5.3149,0 0.034,-0.34563 0.1008,-0.33235 0.1638,-0.3063 0.2203,-0.26847 0.2685,-0.22033 0.3063,-0.16372 0.3323,-0.10081 0.3456,-0.034 0.3457,0.034 0.3323,0.10081 0.3063,0.16372 0.2685,0.22033 0.2203,0.26847 0.1637,0.3063 0.1009,0.33235 0.034,0.34563 -0.034,0.34563 -0.1009,0.33235 -0.1637,0.3063 -0.2203,0.26847 -0.2685,0.22032 -0.3063,0.16372 -0.3323,0.10082 -0.3457,0.034 0,15.94488 35.4331,0 0,0 z"
       inkscape:connector-curvature="0" />
    <path
       id="path3460"
       style="fill:none;stroke:#000000"
       d="m 1226.9883,372.83021 0,-35.43307 -194.8819,0 0,35.43307 26.5748,0 0,-15.94488 -0.3456,-0.034 -0.3324,-0.10082 -0.3062,-0.16372 -0.2685,-0.22033 -0.2203,-0.26847 -0.1638,-0.30629 -0.1008,-0.33235 -0.034,-0.34563 0.034,-0.34564 0.1008,-0.33235 0.1638,-0.30629 0.2203,-0.26847 0.2685,-0.22033 0.3062,-0.16372 0.3324,-0.10082 0.3456,-0.034 0.3457,0.034 0.3323,0.10082 0.3063,0.16372 0.2685,0.22033 0.2203,0.26847 0.1637,0.30629 0.1008,0.33235 0.034,0.34564 5.315,0 0.034,-0.34564 0.1008,-0.33235 0.1637,-0.30629 0.2204,-0.26847 0.2684,-0.22033 0.3063,-0.16372 0.3324,-0.10082 0.3456,-0.034 0.3456,0.034 0.3324,0.10082 0.3063,0.16372 0.2685,0.22033 0.2203,0.26847 0.1637,0.30629 0.1008,0.33235 0.034,0.34564 -0.034,0.34563 -0.1008,0.33235 -0.1637,0.30629 -0.2203,0.26847 -0.2685,0.22033 -0.3063,0.16372 -0.3324,0.10082 -0.3456,0.034 0,15.94488 115.1575,0 0,-15.94488 -0.3456,-0.034 -0.3324,-0.10082 -0.3063,-0.16372 -0.2685,-0.22033 -0.2203,-0.26847 -0.1637,-0.30629 -0.1008,-0.33235 -0.034,-0.34563 0.034,-0.34564 0.1008,-0.33235 0.1637,-0.30629 0.2203,-0.26847 0.2685,-0.22033 0.3063,-0.16372 0.3324,-0.10082 0.3456,-0.034 0.3456,0.034 0.3324,0.10082 0.3063,0.16372 0.2684,0.22033 0.2204,0.26847 0.1637,0.30629 0.1008,0.33235 0.034,0.34564 5.315,0 0.034,-0.34564 0.1008,-0.33235 0.1637,-0.30629 0.2203,-0.26847 0.2685,-0.22033 0.3063,-0.16372 0.3323,-0.10082 0.3457,-0.034 0.3456,0.034 0.3324,0.10082 0.3063,0.16372 0.2684,0.22033 0.2204,0.26847 0.1637,0.30629 0.1008,0.33235 0.034,0.34564 -0.034,0.34563 -0.1008,0.33235 -0.1637,0.30629 -0.2204,0.26847 -0.2684,0.22033 -0.3063,0.16372 -0.3324,0.10082 -0.3456,0.034 0,15.94488 35.433,0 0,0 z"
       inkscape:connector-curvature="0" />
    <path
       id="path3462"
       style="fill:none;stroke:#000000"
       d="m 904.65536,174.19354 5.31496,0 0.034,-0.34563 0.10081,-0.33235 0.16372,-0.30629 0.22033,-0.26847 0.26847,-0.22033 0.3063,-0.16372 0.33235,-0.10082 0.34563,-0.034 0.34563,0.034 0.33235,0.10082 0.3063,0.16372 0.26847,0.22033 0.22033,0.26847 0.16371,0.30629 0.10082,0.33235 0.034,0.34563 -0.034,0.34564 -0.10082,0.33235 -0.16371,0.30629 -0.22033,0.26847 -0.26847,0.22033 -0.3063,0.16372 -0.33235,0.10082 -0.34563,0.034 0,15.94488 115.15747,0 0,-15.94488 -0.3456,-0.034 -0.3324,-0.10082 -0.3063,-0.16372 -0.2684,-0.22033 -0.2204,-0.26847 -0.1637,-0.30629 -0.1008,-0.33235 -0.034,-0.34564 0.034,-0.34563 0.1008,-0.33235 0.1637,-0.30629 0.2204,-0.26847 0.2684,-0.22033 0.3063,-0.16372 0.3324,-0.10082 0.3456,-0.034 0.3456,0.034 0.3324,0.10082 0.3063,0.16372 0.2684,0.22033 0.2204,0.26847 0.1637,0.30629 0.1008,0.33235 0.034,0.34563 5.315,0 0.034,-0.34563 0.1008,-0.33235 0.1637,-0.30629 0.2203,-0.26847 0.2685,-0.22033 0.3063,-0.16372 0.3324,-0.10082 0.3456,-0.034 0.3456,0.034 0.3324,0.10082 0.3063,0.16372 0.2684,0.22033 0.2204,0.26847 0.1637,0.30629 0.1008,0.33235 0.034,0.34563 -0.034,0.34564 -0.1008,0.33235 -0.1637,0.30629 -0.2204,0.26847 -0.2684,0.22033 -0.3063,0.16372 -0.3324,0.10082 -0.3456,0.034 0,15.94488 35.4331,0 0,-35.43307 -194.88193,0 0,35.43307 26.5748,0 0,-15.94488 -0.34563,-0.034 -0.33235,-0.10082 -0.3063,-0.16372 -0.26847,-0.22033 -0.22032,-0.26847 -0.16372,-0.30629 -0.10082,-0.33235 -0.034,-0.34564 0.034,-0.34563 0.10082,-0.33235 0.16372,-0.30629 0.22032,-0.26847 0.26847,-0.22033 0.3063,-0.16372 0.33235,-0.10082 0.34563,-0.034 0.34563,0.034 0.33235,0.10082 0.3063,0.16372 0.26847,0.22033 0.22033,0.26847 0.16372,0.30629 0.10081,0.33235 0.034,0.34563 0,0 z"
       inkscape:connector-curvature="0" />
    <path
       id="path3464"
       style="fill:none;stroke:#000000"
       d="m 990.7968,288.59538 -0.1008,0.33235 -0.1637,0.30629 -0.2203,0.26847 -0.2685,0.22033 -0.3063,0.16372 -0.3323,0.10082 -0.3457,0.034 -0.3456,-0.034 -0.3324,-0.10082 -0.3063,-0.16372 -0.2684,-0.22033 -0.2204,-0.26847 -0.1637,-0.30629 -0.1008,-0.33235 -0.034,-0.34563 0.034,-0.34564 0.1008,-0.33235 0.1637,-0.30629 0.2204,-0.26847 0.2684,-0.22033 0.3063,-0.16372 0.3324,-0.10081 0.3456,-0.0341 0,-5.31496 -0.3456,-0.034 -0.3324,-0.10082 -0.3063,-0.16371 -0.2684,-0.22033 -0.2204,-0.26847 -0.1637,-0.3063 -0.1008,-0.33235 -0.034,-0.34563 0.034,-0.34563 0.1008,-0.33235 0.1637,-0.3063 0.2204,-0.26847 0.2684,-0.22033 0.3063,-0.16371 0.3324,-0.10082 0.3456,-0.034 0.3457,0.034 0.3323,0.10082 0.3063,0.16371 0.2685,0.22033 0.2203,0.26847 0.1637,0.3063 0.1008,0.33235 0.034,0.34563 15.9449,0 0,-35.43307 -35.43305,0 0,194.88189 35.43305,0 0,-26.57481 -15.9449,0 -0.034,0.34564 -0.1008,0.33235 -0.1637,0.30629 -0.2203,0.26847 -0.2685,0.22033 -0.3063,0.16372 -0.3323,0.10082 -0.3457,0.034 -0.3456,-0.034 -0.3324,-0.10082 -0.3063,-0.16372 -0.2684,-0.22033 -0.2204,-0.26847 -0.1637,-0.30629 -0.1008,-0.33235 -0.034,-0.34564 0.034,-0.34563 0.1008,-0.33235 0.1637,-0.30629 0.2204,-0.26847 0.2684,-0.22033 0.3063,-0.16372 0.3324,-0.10082 0.3456,-0.034 0,-5.31496 -0.3456,-0.034 -0.3324,-0.10082 -0.3063,-0.16372 -0.2684,-0.22032 -0.2204,-0.26847 -0.1637,-0.3063 -0.1008,-0.33235 -0.034,-0.34563 0.034,-0.34563 0.1008,-0.33236 0.1637,-0.30629 0.2204,-0.26847 0.2684,-0.22033 0.3063,-0.16372 0.3324,-0.10081 0.3456,-0.034 0.3457,0.034 0.3323,0.10081 0.3063,0.16372 0.2685,0.22033 0.2203,0.26847 0.1637,0.30629 0.1008,0.33236 0.034,0.34563 15.9449,0 0,-115.15748 -15.9449,0 -0.034,0.34563 0,0 z"
       inkscape:connector-curvature="0" />
    <path
       id="path3466"
       style="fill:none;stroke:#000000"
       d="m 911.06143,244.94158 -35.43308,0 0,194.88189 35.43308,0 0,-26.57481 -15.94489,0 -0.034,0.34564 -0.10082,0.33235 -0.16371,0.30629 -0.22033,0.26847 -0.26847,0.22033 -0.3063,0.16372 -0.33235,0.10082 -0.34563,0.034 -0.34563,-0.034 -0.33235,-0.10082 -0.3063,-0.16372 -0.26847,-0.22033 -0.22033,-0.26847 -0.16371,-0.30629 -0.10082,-0.33235 -0.034,-0.34564 0.034,-0.34563 0.10082,-0.33235 0.16371,-0.30629 0.22033,-0.26847 0.26847,-0.22033 0.3063,-0.16372 0.33235,-0.10082 0.34563,-0.034 0,-5.31496 -0.34563,-0.034 -0.33235,-0.10082 -0.3063,-0.16372 -0.26847,-0.22032 -0.22033,-0.26847 -0.16371,-0.3063 -0.10082,-0.33235 -0.034,-0.34563 0.034,-0.34563 0.10082,-0.33236 0.16371,-0.30629 0.22033,-0.26847 0.26847,-0.22033 0.3063,-0.16372 0.33235,-0.10081 0.34563,-0.034 0.34563,0.034 0.33235,0.10081 0.3063,0.16372 0.26847,0.22033 0.22033,0.26847 0.16371,0.30629 0.10082,0.33236 0.034,0.34563 15.94489,0 0,-115.15748 -15.94489,0 -0.034,0.34563 -0.10082,0.33235 -0.16371,0.30629 -0.22033,0.26847 -0.26847,0.22033 -0.3063,0.16372 -0.33235,0.10082 -0.34563,0.034 -0.34563,-0.034 -0.33235,-0.10082 -0.3063,-0.16372 -0.26847,-0.22033 -0.22033,-0.26847 -0.16371,-0.30629 -0.10082,-0.33235 -0.034,-0.34563 0.034,-0.34564 0.10082,-0.33235 0.16371,-0.30629 0.22033,-0.26847 0.26847,-0.22033 0.3063,-0.16372 0.33235,-0.10081 0.34563,-0.0341 0,-5.31496 -0.34563,-0.034 -0.33235,-0.10082 -0.3063,-0.16371 -0.26847,-0.22033 -0.22033,-0.26847 -0.16371,-0.3063 -0.10082,-0.33235 -0.034,-0.34563 0.034,-0.34563 0.10082,-0.33235 0.16371,-0.3063 0.22033,-0.26847 0.26847,-0.22033 0.3063,-0.16371 0.33235,-0.10082 0.34563,-0.034 0.34563,0.034 0.33235,0.10082 0.3063,0.16371 0.26847,0.22033 0.22033,0.26847 0.16371,0.3063 0.10082,0.33235 0.034,0.34563 15.94489,0 0,-35.43307 0,0 z"
       inkscape:connector-curvature="0" />
    <path
       id="path3468"
       style="fill:none;stroke:#000000"
       d="m 961.06143,243.16429 -35.43307,0 0,194.88189 35.43307,0 0,-26.57481 -15.94488,0 -0.034,0.34564 -0.10082,0.33235 -0.16372,0.30629 -0.22032,0.26847 -0.26847,0.22033 -0.3063,0.16372 -0.33235,0.10082 -0.34563,0.034 -0.34563,-0.034 -0.33235,-0.10082 -0.3063,-0.16372 -0.26847,-0.22033 -0.22033,-0.26847 -0.16372,-0.30629 -0.10081,-0.33235 -0.034,-0.34564 0.034,-0.34563 0.10081,-0.33235 0.16372,-0.30629 0.22033,-0.26847 0.26847,-0.22033 0.3063,-0.16372 0.33235,-0.10082 0.34563,-0.034 0,-5.31496 -0.34563,-0.034 -0.33235,-0.10082 -0.3063,-0.16372 -0.26847,-0.22032 -0.22033,-0.26847 -0.16372,-0.3063 -0.10081,-0.33235 -0.034,-0.34563 0.034,-0.34563 0.10081,-0.33236 0.16372,-0.30629 0.22033,-0.26847 0.26847,-0.22033 0.3063,-0.16372 0.33235,-0.10081 0.34563,-0.034 0.34563,0.034 0.33235,0.10081 0.3063,0.16372 0.26847,0.22033 0.22032,0.26847 0.16372,0.30629 0.10082,0.33236 0.034,0.34563 15.94488,0 0,-115.15748 -15.94488,0 -0.034,0.34563 -0.10082,0.33235 -0.16372,0.30629 -0.22032,0.26847 -0.26847,0.22033 -0.3063,0.16372 -0.33235,0.10082 -0.34563,0.034 -0.34563,-0.034 -0.33235,-0.10082 -0.3063,-0.16372 -0.26847,-0.22033 -0.22033,-0.26847 -0.16372,-0.30629 -0.10081,-0.33235 -0.034,-0.34563 0.034,-0.34564 0.10081,-0.33235 0.16372,-0.30629 0.22033,-0.26847 0.26847,-0.22033 0.3063,-0.16372 0.33235,-0.10081 0.34563,-0.0341 0,-5.31496 -0.34563,-0.034 -0.33235,-0.10082 -0.3063,-0.16371 -0.26847,-0.22033 -0.22033,-0.26847 -0.16372,-0.3063 -0.10081,-0.33235 -0.034,-0.34563 0.034,-0.34563 0.10081,-0.33235 0.16372,-0.3063 0.22033,-0.26847 0.26847,-0.22033 0.3063,-0.16371 0.33235,-0.10082 0.34563,-0.034 0.34563,0.034 0.33235,0.10082 0.3063,0.16371 0.26847,0.22033 0.22032,0.26847 0.16372,0.3063 0.10082,0.33235 0.034,0.34563 15.94488,0 0,-35.43307 0,0 z"
       inkscape:connector-curvature="0" />
    <path
       id="path3470"
       style="fill:none;stroke:#000000"
       d="m 1109.5125,214.78961 5.315,0 0.034,-0.34564 0.1008,-0.33235 0.1637,-0.30629 0.2203,-0.26847 0.2685,-0.22033 0.3063,-0.16372 0.3323,-0.10082 0.3457,-0.034 0.3456,0.034 0.3324,0.10082 0.3063,0.16372 0.2684,0.22033 0.2204,0.26847 0.1637,0.30629 0.1008,0.33235 0.034,0.34564 -0.034,0.34563 -0.1008,0.33235 -0.1637,0.30629 -0.2204,0.26847 -0.2684,0.22033 -0.3063,0.16372 -0.3324,0.10082 -0.3456,0.034 0,15.94488 115.1575,0 0,-15.94488 -0.3457,-0.034 -0.3323,-0.10082 -0.3063,-0.16372 -0.2685,-0.22033 -0.2203,-0.26847 -0.1637,-0.30629 -0.1009,-0.33235 -0.034,-0.34563 0.034,-0.34564 0.1009,-0.33235 0.1637,-0.30629 0.2203,-0.26847 0.2685,-0.22033 0.3063,-0.16372 0.3323,-0.10082 0.3457,-0.034 0.3456,0.034 0.3323,0.10082 0.3063,0.16372 0.2685,0.22033 0.2203,0.26847 0.1638,0.30629 0.1008,0.33235 0.034,0.34564 5.3149,0 0.034,-0.34564 0.1008,-0.33235 0.1638,-0.30629 0.2203,-0.26847 0.2685,-0.22033 0.3063,-0.16372 0.3323,-0.10082 0.3456,-0.034 0.3457,0.034 0.3323,0.10082 0.3063,0.16372 0.2685,0.22033 0.2203,0.26847 0.1637,0.30629 0.1008,0.33235 0.034,0.34564 -0.034,0.34563 -0.1008,0.33235 -0.1637,0.30629 -0.2203,0.26847 -0.2685,0.22033 -0.3063,0.16372 -0.3323,0.10082 -0.3457,0.034 0,15.94488 35.4331,0 0,-35.43307 -194.8819,0 0,35.43307 26.5748,0 0,-15.94488 -0.3456,-0.034 -0.3324,-0.10082 -0.3063,-0.16372 -0.2684,-0.22033 -0.2204,-0.26847 -0.1637,-0.30629 -0.1008,-0.33235 -0.034,-0.34563 0.034,-0.34564 0.1008,-0.33235 0.1637,-0.30629 0.2204,-0.26847 0.2684,-0.22033 0.3063,-0.16372 0.3324,-0.10082 0.3456,-0.034 0.3457,0.034 0.3323,0.10082 0.3063,0.16372 0.2685,0.22033 0.2203,0.26847 0.1637,0.30629 0.1008,0.33235 0.034,0.34564 0,0 z"
       inkscape:connector-curvature="0" />
    <path
       id="path3472"
       style="fill:none;stroke:#000000"
       d="m 1070.9051,238.67048 0,-35.43308 -194.8819,0 0,35.43308 26.5748,0 0,-15.94489 -0.3456,-0.034 -0.3324,-0.10082 -0.3063,-0.16371 -0.2685,-0.22033 -0.2203,-0.26847 -0.1637,-0.3063 -0.1008,-0.33235 -0.034,-0.34563 0.034,-0.34563 0.1008,-0.33235 0.1637,-0.3063 0.2203,-0.26847 0.2685,-0.22033 0.3063,-0.16371 0.3324,-0.10082 0.3456,-0.034 0.3456,0.034 0.3324,0.10082 0.3063,0.16371 0.2684,0.22033 0.2204,0.26847 0.1637,0.3063 0.1008,0.33235 0.034,0.34563 5.315,0 0.034,-0.34563 0.1008,-0.33235 0.1637,-0.3063 0.2203,-0.26847 0.2685,-0.22033 0.3063,-0.16371 0.3323,-0.10082 0.3457,-0.034 0.3456,0.034 0.3324,0.10082 0.3063,0.16371 0.2684,0.22033 0.2204,0.26847 0.1637,0.3063 0.1008,0.33235 0.034,0.34563 -0.034,0.34563 -0.1008,0.33235 -0.1637,0.3063 -0.2204,0.26847 -0.2684,0.22033 -0.3063,0.16371 -0.3324,0.10082 -0.3456,0.034 0,15.94489 115.1575,0 0,-15.94489 -0.3457,-0.034 -0.3323,-0.10082 -0.3063,-0.16371 -0.2685,-0.22033 -0.2203,-0.26847 -0.1637,-0.3063 -0.1009,-0.33235 -0.034,-0.34563 0.034,-0.34563 0.1009,-0.33235 0.1637,-0.3063 0.2203,-0.26847 0.2685,-0.22033 0.3063,-0.16371 0.3323,-0.10082 0.3457,-0.034 0.3456,0.034 0.3323,0.10082 0.3063,0.16371 0.2685,0.22033 0.2203,0.26847 0.1638,0.3063 0.1008,0.33235 0.034,0.34563 5.3149,0 0.034,-0.34563 0.1008,-0.33235 0.1638,-0.3063 0.2203,-0.26847 0.2685,-0.22033 0.3063,-0.16371 0.3323,-0.10082 0.3456,-0.034 0.3457,0.034 0.3323,0.10082 0.3063,0.16371 0.2685,0.22033 0.2203,0.26847 0.1637,0.3063 0.1008,0.33235 0.034,0.34563 -0.034,0.34563 -0.1008,0.33235 -0.1637,0.3063 -0.2203,0.26847 -0.2685,0.22033 -0.3063,0.16371 -0.3323,0.10082 -0.3457,0.034 0,15.94489 35.4331,0 0,0 z"
       inkscape:connector-curvature="0" />
    <path
       id="path3474"
       style="fill:none;stroke:#000000"
       d="m 1277.7622,184.03606 0,-35.43307 -194.8819,0 0,35.43307 26.5748,0 0,-15.94488 -0.3456,-0.034 -0.3324,-0.10082 -0.3062,-0.16372 -0.2685,-0.22032 -0.2203,-0.26847 -0.1638,-0.3063 -0.1008,-0.33235 -0.034,-0.34563 0.034,-0.34563 0.1008,-0.33235 0.1638,-0.3063 0.2203,-0.26847 0.2685,-0.22033 0.3062,-0.16372 0.3324,-0.10081 0.3456,-0.034 0.3457,0.034 0.3323,0.10081 0.3063,0.16372 0.2685,0.22033 0.2203,0.26847 0.1637,0.3063 0.1009,0.33235 0.034,0.34563 5.315,0 0.034,-0.34563 0.1008,-0.33235 0.1637,-0.3063 0.2204,-0.26847 0.2684,-0.22033 0.3063,-0.16372 0.3324,-0.10081 0.3456,-0.034 0.3457,0.034 0.3323,0.10081 0.3063,0.16372 0.2685,0.22033 0.2203,0.26847 0.1637,0.3063 0.1008,0.33235 0.034,0.34563 -0.034,0.34563 -0.1008,0.33235 -0.1637,0.3063 -0.2203,0.26847 -0.2685,0.22032 -0.3063,0.16372 -0.3323,0.10082 -0.3457,0.034 0,15.94488 115.1575,0 0,-15.94488 -0.3456,-0.034 -0.3324,-0.10082 -0.3063,-0.16372 -0.2684,-0.22032 -0.2204,-0.26847 -0.1637,-0.3063 -0.1008,-0.33235 -0.034,-0.34563 0.034,-0.34563 0.1008,-0.33235 0.1637,-0.3063 0.2204,-0.26847 0.2684,-0.22033 0.3063,-0.16372 0.3324,-0.10081 0.3456,-0.034 0.3456,0.034 0.3324,0.10081 0.3063,0.16372 0.2685,0.22033 0.2203,0.26847 0.1637,0.3063 0.1008,0.33235 0.034,0.34563 5.315,0 0.034,-0.34563 0.1008,-0.33235 0.1637,-0.3063 0.2203,-0.26847 0.2685,-0.22033 0.3063,-0.16372 0.3324,-0.10081 0.3456,-0.034 0.3456,0.034 0.3324,0.10081 0.3063,0.16372 0.2684,0.22033 0.2204,0.26847 0.1637,0.3063 0.1008,0.33235 0.034,0.34563 -0.034,0.34563 -0.1008,0.33235 -0.1637,0.3063 -0.2204,0.26847 -0.2684,0.22032 -0.3063,0.16372 -0.3324,0.10082 -0.3456,0.034 0,15.94488 35.4331,0 0,0 z"
       inkscape:connector-curvature="0" />
    <path
       id="path3476"
       style="fill:none;stroke:#000000"
       d="m 851.7448,176.85962 -0.10082,0.33235 -0.16372,0.30629 -0.22032,0.26847 -0.26847,0.22033 -0.3063,0.16372 -0.33235,0.10082 -0.34563,0.034 -0.34563,-0.034 -0.33235,-0.10082 -0.3063,-0.16372 -0.26847,-0.22033 -0.22033,-0.26847 -0.16372,-0.30629 -0.10081,-0.33235 -0.034,-0.34563 0.034,-0.34564 0.10081,-0.33235 0.16372,-0.30629 0.22033,-0.26847 0.26847,-0.22033 0.3063,-0.16372 0.33235,-0.10082 0.34563,-0.034 0,-5.31496 -0.34563,-0.034 -0.33235,-0.10082 -0.3063,-0.16372 -0.26847,-0.22032 -0.22033,-0.26847 -0.16372,-0.3063 -0.10081,-0.33235 -0.034,-0.34563 0.034,-0.34563 0.10081,-0.33235 0.16372,-0.3063 0.22033,-0.26847 0.26847,-0.22033 0.3063,-0.16372 0.33235,-0.10081 0.34563,-0.034 0.34563,0.034 0.33235,0.10081 0.3063,0.16372 0.26847,0.22033 0.22032,0.26847 0.16372,0.3063 0.10082,0.33235 0.034,0.34563 15.94488,0 0,-35.43307 -35.43307,0 0,194.88189 35.43307,0 0,-26.57481 -15.94488,0 -0.034,0.34564 -0.10082,0.33235 -0.16372,0.30629 -0.22032,0.26847 -0.26847,0.22033 -0.3063,0.16372 -0.33235,0.10082 -0.34563,0.034 -0.34563,-0.034 -0.33235,-0.10082 -0.3063,-0.16372 -0.26847,-0.22033 -0.22033,-0.26847 -0.16372,-0.30629 -0.10081,-0.33235 -0.034,-0.34564 0.034,-0.34563 0.10081,-0.33235 0.16372,-0.30629 0.22033,-0.26847 0.26847,-0.22033 0.3063,-0.16372 0.33235,-0.10082 0.34563,-0.034 0,-5.31496 -0.34563,-0.034 -0.33235,-0.10082 -0.3063,-0.16372 -0.26847,-0.22033 -0.22033,-0.26847 -0.16372,-0.30629 -0.10081,-0.33235 -0.034,-0.34563 0.034,-0.34564 0.10081,-0.33235 0.16372,-0.30629 0.22033,-0.26847 0.26847,-0.22033 0.3063,-0.16372 0.33235,-0.10082 0.34563,-0.034 0.34563,0.034 0.33235,0.10082 0.3063,0.16372 0.26847,0.22033 0.22032,0.26847 0.16372,0.30629 0.10082,0.33235 0.034,0.34564 15.94488,0 0,-115.15748 -15.94488,0 -0.034,0.34563 0,0 z"
       inkscape:connector-curvature="0" />
    <path
       id="path3478"
       style="fill:none;stroke:#000000"
       d="m 1276.8767,143.28027 0,-35.43308 -194.8819,0 0,35.43308 26.5748,0 0,-15.94489 -0.3456,-0.034 -0.3324,-0.10082 -0.3063,-0.16371 -0.2684,-0.22033 -0.2204,-0.26847 -0.1637,-0.3063 -0.1008,-0.33235 -0.034,-0.34563 0.034,-0.34563 0.1008,-0.33235 0.1637,-0.3063 0.2204,-0.26847 0.2684,-0.22033 0.3063,-0.16371 0.3324,-0.10082 0.3456,-0.034 0.3457,0.034 0.3323,0.10082 0.3063,0.16371 0.2685,0.22033 0.2203,0.26847 0.1637,0.3063 0.1008,0.33235 0.034,0.34563 5.315,0 0.034,-0.34563 0.1008,-0.33235 0.1637,-0.3063 0.2204,-0.26847 0.2684,-0.22033 0.3063,-0.16371 0.3324,-0.10082 0.3456,-0.034 0.3456,0.034 0.3324,0.10082 0.3063,0.16371 0.2685,0.22033 0.2203,0.26847 0.1637,0.3063 0.1008,0.33235 0.034,0.34563 -0.034,0.34563 -0.1008,0.33235 -0.1637,0.3063 -0.2203,0.26847 -0.2685,0.22033 -0.3063,0.16371 -0.3324,0.10082 -0.3456,0.034 0,15.94489 115.1575,0 0,-15.94489 -0.3456,-0.034 -0.3324,-0.10082 -0.3063,-0.16371 -0.2685,-0.22033 -0.2203,-0.26847 -0.1637,-0.3063 -0.1008,-0.33235 -0.034,-0.34563 0.034,-0.34563 0.1008,-0.33235 0.1637,-0.3063 0.2203,-0.26847 0.2685,-0.22033 0.3063,-0.16371 0.3324,-0.10082 0.3456,-0.034 0.3456,0.034 0.3324,0.10082 0.3063,0.16371 0.2684,0.22033 0.2204,0.26847 0.1637,0.3063 0.1008,0.33235 0.034,0.34563 5.315,0 0.034,-0.34563 0.1008,-0.33235 0.1637,-0.3063 0.2203,-0.26847 0.2685,-0.22033 0.3063,-0.16371 0.3323,-0.10082 0.3457,-0.034 0.3456,0.034 0.3324,0.10082 0.3063,0.16371 0.2684,0.22033 0.2204,0.26847 0.1637,0.3063 0.1008,0.33235 0.034,0.34563 -0.034,0.34563 -0.1008,0.33235 -0.1637,0.3063 -0.2204,0.26847 -0.2684,0.22033 -0.3063,0.16371 -0.3324,0.10082 -0.3456,0.034 0,15.94489 35.433,0 0,0 z"
       inkscape:connector-curvature="0" />
    <path
       id="path3480"
       style="fill:none;stroke:#000000"
       d="m 1121.2403,60.954255 -0.3324,-0.10082 -0.3063,-0.16371 -0.2684,-0.22033 -0.2204,-0.26847 -0.1637,-0.3063 -0.1008,-0.33235 -0.034,-0.34563 0.034,-0.34563 0.1008,-0.33235 0.1637,-0.3063 0.2204,-0.26847 0.2684,-0.22033 0.3063,-0.16371 0.3324,-0.10082 0.3456,-0.034 0.3456,0.034 0.3324,0.10082 0.3063,0.16371 0.2685,0.22033 0.2203,0.26847 0.1637,0.3063 0.1008,0.33235 0.034,0.34563 5.3149,0 0.034,-0.34563 0.1008,-0.33235 0.1637,-0.3063 0.2203,-0.26847 0.2685,-0.22033 0.3063,-0.16371 0.3323,-0.10082 0.3457,-0.034 0.3456,0.034 0.3324,0.10082 0.3063,0.16371 0.2684,0.22033 0.2203,0.26847 0.1638,0.3063 0.1008,0.33235 0.034,0.34563 -0.034,0.34563 -0.1008,0.33235 -0.1638,0.3063 -0.2203,0.26847 -0.2684,0.22033 -0.3063,0.16371 -0.3324,0.10082 -0.3456,0.034 0,15.94489 35.433,0 0,-35.43308 -194.88178,0 0,35.43308 26.5748,0 0,-15.94489 -0.3457,-0.034 -0.3323,-0.10082 -0.3063,-0.16371 -0.2685,-0.22033 -0.2203,-0.26847 -0.1637,-0.3063 -0.1009,-0.33235 -0.034,-0.34563 0.034,-0.34563 0.1009,-0.33235 0.1637,-0.3063 0.2203,-0.26847 0.2685,-0.22033 0.3063,-0.16371 0.3323,-0.10082 0.3457,-0.034 0.3456,0.034 0.3323,0.10082 0.3063,0.16371 0.2685,0.22033 0.2203,0.26847 0.1638,0.3063 0.1008,0.33235 0.034,0.34563 5.31498,0 0.034,-0.34563 0.1008,-0.33235 0.1638,-0.3063 0.2203,-0.26847 0.2684,-0.22033 0.3063,-0.16371 0.3324,-0.10082 0.3456,-0.034 0.3457,0.034 0.3323,0.10082 0.3063,0.16371 0.2685,0.22033 0.2203,0.26847 0.1637,0.3063 0.1008,0.33235 0.034,0.34563 -0.034,0.34563 -0.1008,0.33235 -0.1637,0.3063 -0.2203,0.26847 -0.2685,0.22033 -0.3063,0.16371 -0.3323,0.10082 -0.3457,0.034 0,15.94489 115.1575,0 0,-15.94489 -0.3456,-0.034 0,0 z"
       inkscape:connector-curvature="0" />
    <path
       id="path3482"
       style="fill:none;stroke:#000000"
       d="m 804.65412,379.47682 0,-5.31496 -0.34563,-0.034 -0.33235,-0.10082 -0.3063,-0.16372 -0.26847,-0.22033 -0.22033,-0.26847 -0.16371,-0.30629 -0.10082,-0.33235 -0.034,-0.34564 0.034,-0.34563 0.10082,-0.33235 0.16371,-0.30629 0.22033,-0.26847 0.26847,-0.22033 0.3063,-0.16372 0.33235,-0.10082 0.34563,-0.034 0.34563,0.034 0.33235,0.10082 0.3063,0.16372 0.26847,0.22033 0.22033,0.26847 0.16371,0.30629 0.10082,0.33235 0.034,0.34563 15.94489,0 0,-115.15748 -15.94489,0 -0.034,0.3456 -0.10082,0.3324 -0.16371,0.3063 -0.22033,0.2684 -0.26847,0.2204 -0.3063,0.1637 -0.33235,0.1008 -0.34563,0.034 -0.34563,-0.034 -0.33235,-0.1008 -0.3063,-0.1637 -0.26847,-0.2204 -0.22033,-0.2684 -0.16371,-0.3063 -0.10082,-0.3324 -0.034,-0.3456 0.034,-0.3456 0.10082,-0.3324 0.16371,-0.3063 0.22033,-0.2684 0.26847,-0.2204 0.3063,-0.1637 0.33235,-0.1008 0.34563,-0.034 0,-5.315 -0.34563,-0.034 -0.33235,-0.1008 -0.3063,-0.1637 -0.26847,-0.2203 -0.22033,-0.2685 -0.16371,-0.3063 -0.10082,-0.3324 -0.034,-0.3456 0.034,-0.3456 0.10082,-0.3324 0.16371,-0.3063 0.22033,-0.2684 0.26847,-0.2204 0.3063,-0.1637 0.33235,-0.1008 0.34563,-0.034 0.34563,0.034 0.33235,0.1008 0.3063,0.1637 0.26847,0.2204 0.22033,0.2684 0.16371,0.3063 0.10082,0.3324 0.034,0.3456 15.94489,0 0,-35.433 -35.43308,0 0,194.88184 35.43308,0 0,-26.57481 -15.94489,0 -0.034,0.34563 -0.10082,0.33235 -0.16371,0.3063 -0.22033,0.26847 -0.26847,0.22033 -0.3063,0.16372 -0.33235,0.10081 -0.34563,0.0341 -0.34563,-0.0341 -0.33235,-0.10081 -0.3063,-0.16372 -0.26847,-0.22033 -0.22033,-0.26847 -0.16371,-0.3063 -0.10082,-0.33235 -0.034,-0.34563 0.034,-0.34563 0.10082,-0.33235 0.16371,-0.30629 0.22033,-0.26847 0.26847,-0.22033 0.3063,-0.16372 0.33235,-0.10082 0.34563,-0.034 0,0 z"
       inkscape:connector-curvature="0" />
    <g
       id="g3637"
       transform="translate(1706,-854)">
      <path
         inkscape:connector-curvature="0"
         d="m -281.76691,1203.4899 -14.63618,0 -0.034,0.3457 -0.10081,0.3323 -0.16372,0.3063 -0.22033,0.2685 -0.26847,0.2203 -0.3063,0.1637 -0.33235,0.1009 -0.34563,0.034 -0.34563,-0.034 -0.33235,-0.1009 -0.3063,-0.1637 -0.26847,-0.2203 -0.22032,-0.2685 -0.16372,-0.3063 -0.10082,-0.3323 -0.034,-0.3457 0.034,-0.3456 0.10082,-0.3323 0.16372,-0.3063 0.22032,-0.2685 0.26847,-0.2203 0.3063,-0.1638 0.33235,-0.1008 0.34563,-0.034 0,-5.3149 -0.34563,-0.034 -0.33235,-0.1008 -0.3063,-0.1638 -0.26847,-0.2203 -0.22032,-0.2685 -0.16372,-0.3063 -0.10082,-0.3323 -0.034,-0.3456 0.034,-0.3457 0.10082,-0.3323 0.16372,-0.3063 0.22032,-0.2685 0.26847,-0.2203 0.3063,-0.1637 0.33235,-0.1008 0.34563,-0.034 0.34563,0.034 0.33235,0.1008 0.3063,0.1637 0.26847,0.2203 0.22033,0.2685 0.16372,0.3063 0.10081,0.3323 0.034,0.3457 15.50865,0 0.43623,-4.4292 -6.80837,-69.1265 -18.98974,-62.6007 -13.99729,6.232 0.10948,0.3296 0.0431,0.3446 -0.025,0.3464 -0.0921,0.3349 -0.15564,0.3104 -0.21323,0.2742 -0.26261,0.2273 -0.3019,0.1716 -0.3296,0.1095 -0.34462,0.043 -0.34641,-0.025 -0.33487,-0.092 -0.31048,-0.1556 -0.27415,-0.2132 -0.22727,-0.2627 -0.17168,-0.3019 -0.10949,-0.3296 -0.0431,-0.3446 0.025,-0.3464 0.0921,-0.3349 0.15564,-0.3104 0.21323,-0.2742 0.26261,-0.2273 0.3019,-0.1716 -2.16179,-4.8555 -0.32959,0.1095 -0.34463,0.043 -0.3464,-0.025 -0.33488,-0.092 -0.31047,-0.1557 -0.27415,-0.2132 -0.22728,-0.2626 -0.17168,-0.3019 -0.10948,-0.3296 -0.0431,-0.3446 0.025,-0.3464 0.0921,-0.3349 0.15564,-0.3105 0.21323,-0.2741 0.26261,-0.2273 0.3019,-0.1717 0.3296,-0.1095 0.34462,-0.043 0.34641,0.025 0.33487,0.092 0.31048,0.1557 0.27414,0.2132 0.22729,0.2626 0.17167,0.3019 14.13617,-6.2938 -30.45327,-56.97408 -44.06557,-53.69405 -4.06786,-3.33841 -10.18301,11.30939 0.23407,0.25657 0.17953,0.29731 0.11807,0.32661 0.0521,0.34338 -0.0159,0.34694 -0.0833,0.33717 -0.14746,0.31445 -0.20598,0.27963 -0.25657,0.23408 -0.29731,0.17952 -0.32661,0.11807 -0.34338,0.0521 -0.34694,-0.0159 -0.33717,-0.0833 -0.31445,-0.14747 -0.27963,-0.20597 -0.23408,-0.25657 -0.17952,-0.29731 -0.11807,-0.32662 -0.0521,-0.34338 0.0159,-0.34694 0.0833,-0.33717 0.14747,-0.31444 0.20597,-0.27964 -3.94978,-3.5564 -0.25657,0.23408 -0.29731,0.17952 -0.32662,0.11808 -0.34338,0.0521 -0.34694,-0.0159 -0.33717,-0.0833 -0.31444,-0.14747 -0.27964,-0.20597 -0.23407,-0.25657 -0.17953,-0.29731 -0.11807,-0.32662 -0.0521,-0.34338 0.0159,-0.34693 0.0833,-0.33718 0.14746,-0.31444 0.20598,-0.27963 0.25657,-0.23408 0.29731,-0.17952 0.32661,-0.11808 0.34338,-0.0521 0.34694,0.0159 0.33717,0.0833 0.31445,0.14746 0.27963,0.20598 9.91126,-11.00757 -42.77147,-35.10164 -61.2591,-32.74367 -13.89082,-4.21374 -4.50163,13.85461 0.3182,0.13919 0.28493,0.19858 0.24071,0.25036 0.18724,0.2925 0.12659,0.32342 0.061,0.34189 -0.007,0.34724 -0.0744,0.33924 -0.13918,0.31819 -0.19859,0.28493 -0.25035,0.24072 -0.29251,0.18724 -0.32341,0.12658 -0.3419,0.0611 -0.34724,-0.007 -0.33923,-0.0744 -0.3182,-0.13918 -0.28493,-0.19859 -0.24071,-0.25035 -0.18725,-0.29251 -0.12658,-0.32342 -0.0611,-0.34189 0.007,-0.34724 0.0744,-0.33923 -5.05483,-1.64242 -0.13918,0.3182 -0.19859,0.28493 -0.25036,0.24071 -0.2925,0.18725 -0.32342,0.12658 -0.34189,0.0611 -0.34724,-0.007 -0.33924,-0.0744 -0.31819,-0.13918 -0.28493,-0.19858 -0.24071,-0.25036 -0.18725,-0.29251 -0.12658,-0.32341 -0.0611,-0.3419 0.007,-0.34723 0.0744,-0.33924 0.13918,-0.3182 0.19859,-0.28493 0.25036,-0.24071 0.2925,-0.18724 0.32342,-0.12659 0.34189,-0.061 0.34724,0.007 0.33924,0.0744 4.44788,-13.68917 -44.10072,-13.37781 -69.12649,-6.80836 -23.63639,2.32798 1.48005,14.0817 0.3473,-0.002 0.34106,0.0655 0.32174,0.13081 0.29003,0.19105 0.24718,0.24397 0.19484,0.28751 0.135,0.31999 0.07,0.34018 0.002,0.3473 -0.0655,0.34107 -0.1308,0.32173 -0.19106,0.29003 -0.24397,0.24718 -0.2875,0.19484 -0.31999,0.135 -0.34018,0.07 -0.3473,0.002 -0.34107,-0.0655 -0.32173,-0.13081 -0.29003,-0.19106 -0.24718,-0.24397 -0.19484,-0.2875 -0.13501,-0.31999 -0.07,-0.34018 -5.28585,0.55556 0.002,0.3473 -0.0655,0.34107 -0.1308,0.32173 -0.19106,0.29003 -0.24397,0.24718 -0.2875,0.19484 -0.31999,0.135 -0.34019,0.07 -0.34729,0.002 -0.34107,-0.0655 -0.32173,-0.13081 -0.29003,-0.19106 -0.24718,-0.24397 -0.19484,-0.2875 -0.13501,-0.31999 -0.07,-0.34018 -0.002,-0.3473 0.0655,-0.34107 0.13081,-0.32173 0.19105,-0.29003 0.24397,-0.24718 0.28751,-0.19484 0.31999,-0.135 0.34018,-0.07 -1.48611,-14.13936 -36.6743,3.6121 -66.47,20.16346 -29.0855,15.54652 6.9963,12.11794 0.31635,-0.14333 0.33823,-0.0789 0.34712,-0.0114 0.34267,0.0566 0.32504,0.12234 0.29493,0.1834 0.25349,0.23742 0.2023,0.2823 0.14333,0.31635 0.0789,0.33823 0.0114,0.34712 -0.0566,0.34267 -0.12233,0.32504 -0.1834,0.29493 -0.23742,0.25349 -0.2823,0.2023 -0.31635,0.14333 -0.33823,0.0789 -0.34712,0.0114 -0.34267,-0.0566 -0.32504,-0.12234 -0.29494,-0.1834 -0.25348,-0.23742 -0.2023,-0.2823 -4.60289,2.65748 0.14334,0.31634 0.0789,0.33824 0.0114,0.34712 -0.0566,0.34266 -0.12234,0.32505 -0.1834,0.29493 -0.23741,0.25348 -0.28231,0.2023 -0.31635,0.14334 -0.33823,0.0789 -0.34712,0.0114 -0.34266,-0.0566 -0.32505,-0.12234 -0.29493,-0.1834 -0.25349,-0.23741 -0.20229,-0.28231 -0.14334,-0.31635 -0.0789,-0.33823 -0.0114,-0.34712 0.0566,-0.34266 0.12234,-0.32505 0.1834,-0.29493 0.23741,-0.25349 0.28231,-0.20229 -7.1413,-12.36909 -24.35713,13.01916 -53.69405,44.06557 -26.78113,32.63291 11.38104,8.2688 0.2307,-0.25961 0.27691,-0.20962 0.31249,-0.15156 0.33605,-0.0877 0.3467,-0.0204 0.34403,0.0476 0.32814,0.11379 0.29963,0.17562 0.25961,0.2307 0.20962,0.27691 0.15156,0.31249 0.0877,0.33605 0.0204,0.3467 -0.0476,0.34403 -0.11378,0.32814 -0.17562,0.29963 -0.2307,0.25961 -0.27691,0.20962 -0.31249,0.15157 -0.33605,0.0877 -0.3467,0.0204 -0.34403,-0.0476 -0.32814,-0.11379 -0.29963,-0.17562 -3.12405,4.2999 0.25961,0.23069 0.20962,0.27692 0.15157,0.31248 0.0877,0.33606 0.0204,0.3467 -0.0476,0.34403 -0.11379,0.32813 -0.17562,0.29964 -0.2307,0.25961 -0.27691,0.20962 -0.31249,0.15156 -0.33605,0.0877 -0.3467,0.0204 -0.34403,-0.0476 -0.32814,-0.11379 -0.29963,-0.17562 -0.25961,-0.23069 -0.20962,-0.27692 -0.15157,-0.31249 -0.0877,-0.33605 -0.0205,-0.3467 0.0476,-0.34403 0.11379,-0.32813 0.17562,-0.29964 -11.80367,-8.57586 -11.65504,14.20171 -32.74368,61.25913 -14.94108,49.2541 14.07129,2.991 0.10516,-0.331 0.16772,-0.3042 0.22382,-0.2655 0.27133,-0.2168 0.30841,-0.1597 0.33365,-0.096 0.34604,-0.03 0.34516,0.039 0.331,0.1051 0.30413,0.1678 0.26556,0.2238 0.2168,0.2713 0.15969,0.3084 0.0965,0.3337 0.0295,0.346 -0.0386,0.3452 -0.10516,0.331 -0.16771,0.3041 -0.22382,0.2656 -0.27133,0.2168 -0.30842,0.1596 -0.33364,0.096 -0.34605,0.03 -0.34515,-0.039 -1.10505,5.1989 0.33101,0.1051 0.30412,0.1677 0.26556,0.2239 0.2168,0.2713 0.15969,0.3084 0.0965,0.3336 0.0295,0.3461 -0.0386,0.3451 -0.10515,0.3311 -0.16772,0.3041 -0.22382,0.2655 -0.27133,0.2168 -0.30841,0.1597 -0.33365,0.096 -0.34604,0.03 -0.34516,-0.039 -0.331,-0.1051 -0.30413,-0.1677 -0.26556,-0.2239 -0.2168,-0.2713 -0.15969,-0.3084 -0.0965,-0.3336 -0.0295,-0.3461 0.0386,-0.3452 -14.81011,-3.1478 -2.64162,8.7082 -6.80836,69.1265 5.9553,60.4653 14.62151,-3.1079 -0.0386,-0.3452 0.0295,-0.346 0.0965,-0.3337 0.1597,-0.3084 0.21679,-0.2713 0.26557,-0.2238 0.30412,-0.1678 0.331,-0.1051 0.34516,-0.039 0.34605,0.029 0.33364,0.097 0.30841,0.1597 0.27134,0.2168 0.22382,0.2655 0.16771,0.3042 0.10516,0.331 0.0386,0.3451 -0.0295,0.3461 -0.0965,0.3336 -0.15969,0.3084 -0.2168,0.2714 -0.26556,0.2238 -0.30413,0.1677 -0.331,0.1052 1.10504,5.1988 0.34516,-0.039 0.34605,0.029 0.33364,0.097 0.30841,0.1597 0.27133,0.2168 0.22383,0.2655 0.16771,0.3041 0.10516,0.331 0.0386,0.3452 -0.0295,0.3461 -0.0965,0.3336 -0.1597,0.3084 -0.21679,0.2713 -0.26556,0.2239 -0.30413,0.1677 -0.331,0.1051 -0.34516,0.039 -0.34605,-0.03 -0.33364,-0.096 -0.30841,-0.1597 -0.27133,-0.2168 -0.22383,-0.2655 -0.16771,-0.3041 -0.10516,-0.331 -15.54933,3.3051 20.10259,66.2693 32.74368,61.2591 0.39626,0.4829 12.64893,-9.19 -0.17562,-0.2996 -0.11378,-0.3282 -0.0476,-0.344 0.0204,-0.3467 0.0877,-0.3361 0.15156,-0.3124 0.20962,-0.277 0.25961,-0.2307 0.29964,-0.1756 0.32813,-0.1138 0.34403,-0.048 0.3467,0.02 0.33606,0.088 0.31248,0.1516 0.27692,0.2096 0.23069,0.2596 0.17562,0.2997 0.11379,0.3281 0.0476,0.344 -0.0204,0.3467 -0.0877,0.3361 -0.15157,0.3125 -0.20962,0.2769 -0.25961,0.2307 3.12406,4.2999 0.29963,-0.1756 0.32813,-0.1138 0.34403,-0.048 0.34671,0.02 0.33605,0.088 0.31249,0.1516 0.27691,0.2096 0.2307,0.2596 0.17561,0.2996 0.11379,0.3281 0.0476,0.3441 -0.0204,0.3467 -0.0877,0.336 -0.15157,0.3125 -0.20961,0.2769 -0.25962,0.2307 -0.29963,0.1756 -0.32813,0.1138 -0.34403,0.048 -0.34671,-0.02 -0.33605,-0.088 -0.31248,-0.1515 -0.27692,-0.2097 -0.2307,-0.2596 -12.22629,8.883 38.0399,46.3517 53.69405,44.0656 8.72417,4.6632 7.43129,-12.8714 -0.28231,-0.2023 -0.23741,-0.2535 -0.1834,-0.2949 -0.12234,-0.3251 -0.0566,-0.3426 0.0114,-0.3471 0.0789,-0.3383 0.14334,-0.3163 0.20229,-0.2823 0.25349,-0.2374 0.29493,-0.1834 0.32505,-0.1224 0.34266,-0.057 0.34712,0.011 0.33823,0.079 0.31635,0.1434 0.28231,0.2023 0.23741,0.2534 0.1834,0.295 0.12234,0.325 0.0566,0.3427 -0.0114,0.3471 -0.0789,0.3382 -0.14334,0.3164 4.60289,2.6575 0.2023,-0.2823 0.25348,-0.2375 0.29494,-0.1834 0.32504,-0.1223 0.34267,-0.057 0.34712,0.011 0.33823,0.079 0.31635,0.1433 0.2823,0.2023 0.23742,0.2535 0.1834,0.295 0.12234,0.325 0.0566,0.3427 -0.0114,0.3471 -0.0789,0.3382 -0.14333,0.3164 -0.2023,0.2823 -0.25349,0.2374 -0.29493,0.1834 -0.32504,0.1223 -0.34267,0.057 -0.34712,-0.011 -0.33823,-0.079 -0.31635,-0.1433 -7.28629,12.6202 44.71846,23.9025 66.47,20.1634 19.0427,1.8756 1.49823,-14.2547 -0.34018,-0.07 -0.32,-0.135 -0.2875,-0.1948 -0.24397,-0.2472 -0.19106,-0.29 -0.1308,-0.3218 -0.0655,-0.341 0.002,-0.3473 0.07,-0.3402 0.135,-0.32 0.19484,-0.2875 0.24719,-0.244 0.29003,-0.191 0.32173,-0.1308 0.34106,-0.066 0.3473,0 0.34018,0.07 0.31999,0.135 0.28751,0.1948 0.24397,0.2472 0.19106,0.29 0.1308,0.3218 0.0655,0.341 -0.002,0.3473 5.28585,0.5556 0.07,-0.3402 0.13501,-0.32 0.19483,-0.2875 0.24719,-0.2439 0.29003,-0.1911 0.32173,-0.1308 0.34107,-0.066 0.34729,0 0.34018,0.07 0.32,0.135 0.2875,0.1949 0.24397,0.2472 0.19106,0.29 0.1308,0.3217 0.0655,0.3411 -0.002,0.3473 -0.07,0.3402 -0.13501,0.32 -0.19483,0.2875 -0.24719,0.2439 -0.29003,0.1911 -0.32173,0.1308 -0.34107,0.066 -0.34729,0 -1.49217,14.1971 41.26799,4.0645 69.12649,-6.8084 27.14378,-8.2339 -4.34037,-13.3583 -0.33924,0.074 -0.34723,0.01 -0.3419,-0.061 -0.32342,-0.1266 -0.2925,-0.1873 -0.25036,-0.2407 -0.19858,-0.2849 -0.13918,-0.3182 -0.0744,-0.3392 -0.007,-0.3473 0.061,-0.3419 0.12658,-0.3234 0.18725,-0.2925 0.24071,-0.2503 0.28493,-0.1986 0.3182,-0.1392 0.33923,-0.074 0.34724,-0.01 0.3419,0.061 0.32341,0.1266 0.29251,0.1872 0.25035,0.2407 0.19859,0.285 0.13918,0.3182 5.05483,-1.6425 -0.0744,-0.3392 -0.007,-0.3472 0.061,-0.3419 0.12659,-0.3234 0.18724,-0.2925 0.24071,-0.2504 0.28493,-0.1986 0.3182,-0.1392 0.33924,-0.074 0.34723,-0.01 0.3419,0.061 0.32342,0.1266 0.2925,0.1873 0.25036,0.2407 0.19858,0.2849 0.13918,0.3182 0.0744,0.3392 0.007,0.3473 -0.0611,0.3419 -0.12658,0.3234 -0.18725,0.2925 -0.24071,0.2504 -0.28493,0.1985 -0.3182,0.1392 4.39413,13.5237 30.84775,-9.3575 61.2591,-32.7437 29.06202,-23.8505 -9.36776,-10.404 -0.27964,0.206 -0.31444,0.1475 -0.33717,0.083 -0.34694,0.016 -0.34338,-0.052 -0.32662,-0.1181 -0.2973,-0.1795 -0.25657,-0.2341 -0.20598,-0.2797 -0.14746,-0.3144 -0.0833,-0.3372 -0.0159,-0.3469 0.0521,-0.3434 0.11807,-0.3266 0.17953,-0.2973 0.23407,-0.2566 0.27964,-0.206 0.31444,-0.1474 0.33717,-0.083 0.34694,-0.016 0.34338,0.052 0.32662,0.1181 0.29731,0.1795 0.25657,0.2341 3.94978,-3.5565 -0.20597,-0.2796 -0.14747,-0.3144 -0.0833,-0.3372 -0.0159,-0.3469 0.0521,-0.3434 0.11808,-0.3266 0.17952,-0.2973 0.23408,-0.2566 0.27963,-0.206 0.31445,-0.1475 0.33717,-0.083 0.34694,-0.016 0.34337,0.052 0.32662,0.1181 0.29731,0.1795 0.25657,0.2341 0.20598,0.2797 0.14746,0.3144 0.0833,0.3372 0.0159,0.3469 -0.0521,0.3434 -0.11808,0.3266 -0.17952,0.2973 -0.23408,0.2566 9.63952,10.7057 17.77731,-14.5894 44.06557,-53.6941 22.08006,-41.3089 -12.96892,-5.7741 -0.17168,0.3019 -0.22728,0.2626 -0.27415,0.2132 -0.31047,0.1557 -0.33488,0.092 -0.3464,0.025 -0.34462,-0.043 -0.3296,-0.1095 -0.30191,-0.1717 -0.26261,-0.2273 -0.21322,-0.2741 -0.15565,-0.3105 -0.0921,-0.3349 -0.025,-0.3464 0.0431,-0.3446 0.10948,-0.3296 0.17168,-0.3019 0.22728,-0.2626 0.27414,-0.2132 0.31048,-0.1557 0.33488,-0.092 0.3464,-0.025 0.34462,0.043 0.3296,0.1095 2.16179,-4.8554 -0.30191,-0.1717 -0.26261,-0.2273 -0.21322,-0.2741 -0.15565,-0.3105 -0.0921,-0.3349 -0.025,-0.3464 0.0431,-0.3446 0.10948,-0.3296 0.17168,-0.3019 0.22728,-0.2626 0.27415,-0.2133 0.31047,-0.1556 0.33488,-0.092 0.3464,-0.025 0.34463,0.043 0.32959,0.1095 0.30191,0.1717 0.26261,0.2272 0.21322,0.2742 0.15565,0.3105 0.0921,0.3348 0.025,0.3464 -0.0431,0.3447 -0.10949,0.3296 13.55255,6.0339 6.477,-12.1176 20.16345,-66.47 5.49967,-55.8391 0,0 z"
         style="fill:none;stroke:#000000"
         id="path3486" />
      <path
         inkscape:connector-curvature="0"
         d="m -899.94261,1013.0325 39.65901,-48.32465 48.32464,-39.65901 55.1332,-29.4693 59.823,-18.14711 62.21384,-6.12753 62.21384,6.12753 59.823,18.14711 55.13319,29.4693 48.32465,39.65901 39.65901,48.32465 29.46931,55.1332 18.14711,59.823 6.12753,62.2138 -6.12753,62.2139 -18.14711,59.823 -29.46931,55.1332 -39.65901,48.3246 -48.32465,39.659 -55.13319,29.4693 -59.823,18.1471 -62.21384,6.1275 -62.21384,-6.1275 -59.823,-18.1471 -55.1332,-29.4693 -48.32464,-39.659 -39.65901,-48.3246 -29.46931,-55.1332 -18.1471,-59.823 -6.12753,-62.2139 6.12753,-62.2138 18.1471,-59.823 29.46931,-55.1332 0,0 z"
         style="fill:none;stroke:#000000"
         id="path3490" />
    </g>
    <g
       id="g3579"
       transform="translate(-728.85714,-366.85715)">
      <g
         id="g3571">
        <path
           id="path3484"
           style="fill:none;stroke:#000000"
           d="m 1396.6578,571.86275 -0.1095,-0.3296 -0.043,-0.34462 0.025,-0.34641 0.092,-0.33487 0.1556,-0.31048 0.2133,-0.27414 0.2626,-0.22728 0.3019,-0.17168 -2.1618,-4.85546 -0.3296,0.10948 -0.3446,0.0431 -0.3464,-0.025 -0.3349,-0.0921 -0.3105,-0.15564 -0.2741,-0.21323 -0.2273,-0.26261 -0.1717,-0.3019 -0.1095,-0.3296 -0.043,-0.34462 0.025,-0.34641 0.092,-0.33487 0.1557,-0.31048 0.2132,-0.27414 0.2626,-0.22728 0.3019,-0.17168 0.3296,-0.10949 0.3446,-0.0431 0.3464,0.025 0.3349,0.0921 0.3105,0.15565 0.2741,0.21322 0.2273,0.26261 0.1717,0.30191 14.1361,-6.29383 -30.4532,-56.97407 -44.0656,-53.69405 -4.0679,-3.33841 -10.183,11.30939 0.2341,0.25657 0.1795,0.29731 0.1181,0.32661 0.052,0.34338 -0.016,0.34694 -0.083,0.33717 -0.1475,0.31445 -0.2059,0.27963 -0.2566,0.23408 -0.2973,0.17952 -0.3266,0.11807 -0.3434,0.0521 -0.347,-0.0159 -0.3371,-0.0833 -0.3145,-0.14747 -0.2796,-0.20597 -0.2341,-0.25657 -0.1795,-0.29731 -0.1181,-0.32662 -0.052,-0.34338 0.016,-0.34694 0.083,-0.33717 0.1475,-0.31444 0.206,-0.27964 -3.9498,-3.5564 -0.2566,0.23408 -0.2973,0.17952 -0.3266,0.11808 -0.3434,0.0521 -0.3469,-0.0159 -0.3372,-0.0833 -0.3145,-0.14747 -0.2796,-0.20597 -0.2341,-0.25657 -0.1795,-0.29731 -0.1181,-0.32662 -0.052,-0.34338 0.016,-0.34693 0.083,-0.33718 0.1475,-0.31444 0.206,-0.27963 0.2566,-0.23408 0.2973,-0.17952 0.3266,-0.11808 0.3434,-0.0521 0.3469,0.0159 0.3372,0.0833 0.3144,0.14746 0.2796,0.20598 9.9113,-11.00757 -42.7715,-35.10164 -61.2591,-32.74367 -13.8908,-4.21374 -4.5016,13.85461 0.3182,0.13919 0.2849,0.19858 0.2407,0.25036 0.1873,0.2925 0.1266,0.32342 0.061,0.34189 -0.01,0.34724 -0.074,0.33924 -0.1392,0.31819 -0.1986,0.28493 -0.2504,0.24072 -0.2925,0.18724 -0.3234,0.12658 -0.3419,0.0611 -0.3472,-0.007 -0.3393,-0.0744 -0.3181,-0.13918 -0.285,-0.19859 -0.2407,-0.25035 -0.1872,-0.29251 -0.1266,-0.32342 -0.061,-0.34189 0.01,-0.34724 0.074,-0.33923 -5.0549,-1.64242 -0.1391,0.3182 -0.1986,0.28493 -0.2504,0.24071 -0.2925,0.18725 -0.3234,0.12658 -0.3419,0.0611 -0.3472,-0.007 -0.3393,-0.0744 -0.3182,-0.13918 -0.2849,-0.19858 -0.2407,-0.25036 -0.1873,-0.29251 -0.1265,-0.32341 -0.061,-0.3419 0.01,-0.34723 0.075,-0.33924 0.1391,-0.3182 0.1986,-0.28493 0.2504,-0.24071 0.2925,-0.18724 0.3234,-0.12659 0.3419,-0.061 0.3472,0.007 0.3393,0.0744 4.4479,-13.68917 -44.1008,-13.37781 -69.1265,-6.80836 -23.6363,2.32798 1.48,14.0817 0.3473,-0.002 0.3411,0.0655 0.3217,0.13081 0.29,0.19105 0.2472,0.24397 0.1949,0.28751 0.135,0.31999 0.07,0.34018 0,0.3473 -0.065,0.34107 -0.1308,0.32173 -0.1911,0.29003 -0.2439,0.24718 -0.2875,0.19484 -0.32,0.135 -0.3402,0.07 -0.3473,0.002 -0.3411,-0.0655 -0.3217,-0.13081 -0.29,-0.19106 -0.2472,-0.24397 -0.1949,-0.2875 -0.135,-0.31999 -0.07,-0.34018 -5.2858,0.55556 0,0.3473 -0.065,0.34107 -0.1309,0.32173 -0.191,0.29003 -0.244,0.24718 -0.2875,0.19484 -0.32,0.135 -0.3402,0.07 -0.3473,0.002 -0.341,-0.0655 -0.3218,-0.13081 -0.29,-0.19106 -0.2472,-0.24397 -0.1948,-0.2875 -0.135,-0.31999 -0.07,-0.34018 0,-0.3473 0.066,-0.34107 0.1308,-0.32173 0.191,-0.29003 0.244,-0.24718 0.2875,-0.19484 0.32,-0.135 0.3402,-0.07 -1.4861,-14.13936 -36.6743,3.6121 -66.46997,20.16346 -29.0855,15.54652 6.9963,12.11794 0.31635,-0.14333 0.33823,-0.0789 0.34712,-0.0114 0.34267,0.0566 0.32504,0.12234 0.29493,0.1834 0.25349,0.23742 0.2023,0.2823 0.14333,0.31635 0.0789,0.33823 0.0114,0.34712 -0.0566,0.34267 -0.12233,0.32504 -0.1834,0.29493 -0.23742,0.25349 -0.2823,0.2023 -0.31635,0.14333 -0.33823,0.0789 -0.34712,0.0114 -0.34267,-0.0566 -0.32504,-0.12234 -0.29494,-0.1834 -0.25348,-0.23742 -0.2023,-0.2823 -4.60289,2.65748 0.14334,0.31634 0.0789,0.33824 0.0114,0.34712 -0.0566,0.34266 -0.12234,0.32505 -0.1834,0.29493 -0.23741,0.25348 -0.28231,0.2023 -0.31635,0.14334 -0.33823,0.0789 -0.34712,0.0114 -0.34266,-0.0566 -0.32505,-0.12234 -0.29493,-0.1834 -0.25349,-0.23741 -0.20229,-0.28231 -0.14334,-0.31635 -0.0789,-0.33823 -0.0114,-0.34712 0.0566,-0.34266 0.12233,-0.32505 0.18341,-0.29493 0.23741,-0.25349 0.28231,-0.20229 -7.1413,-12.36909 -24.35713,13.01916 -53.69405,44.06557 -26.78114,32.63291 11.38104,8.2688 0.2307,-0.25961 0.27691,-0.20962 0.31249,-0.15156 0.33605,-0.0877 0.3467,-0.0204 0.34403,0.0476 0.32814,0.11379 0.29963,0.17562 0.25961,0.2307 0.20962,0.27691 0.15157,0.31249 0.0877,0.33605 0.0204,0.3467 -0.0476,0.34403 -0.11379,0.32814 -0.17561,0.29963 -0.2307,0.25961 -0.27691,0.20962 -0.31249,0.15157 -0.33605,0.0877 -0.34671,0.0204 -0.34403,-0.0476 -0.32813,-0.11379 -0.29963,-0.17562 -3.12406,4.2999 0.25961,0.23069 0.20962,0.27692 0.15157,0.31248 0.0877,0.33606 0.0204,0.3467 -0.0476,0.34403 -0.11379,0.32813 -0.17561,0.29964 -0.2307,0.25961 -0.27691,0.20962 -0.31249,0.15156 -0.33605,0.0877 -0.3467,0.0204 -0.34403,-0.0476 -0.32814,-0.11379 -0.29963,-0.17562 -0.25961,-0.23069 -0.20962,-0.27692 -0.15157,-0.31249 -0.0877,-0.33605 -0.0204,-0.3467 0.0476,-0.34403 0.11379,-0.32813 0.17561,-0.29964 -11.80366,-8.57586 -11.65505,14.20171 -32.74367,61.2591 -14.94108,49.25414 14.07129,2.99095 0.10516,-0.33101 0.16771,-0.30412 0.22383,-0.26556 0.27133,-0.2168 0.30841,-0.15969 0.33364,-0.0965 0.34605,-0.0295 0.34515,0.0386 0.33101,0.10515 0.30412,0.16772 0.26557,0.22382 0.21679,0.27133 0.1597,0.30841 0.0965,0.33365 0.0295,0.34604 -0.0386,0.34516 -0.10516,0.331 -0.16772,0.30413 -0.22382,0.26556 -0.27133,0.2168 -0.30841,0.15969 -0.33364,0.0965 -0.34605,0.0295 -0.34516,-0.0386 -1.10504,5.19882 0.331,0.10516 0.30413,0.16771 0.26556,0.22383 0.21679,0.27133 0.1597,0.30841 0.0965,0.33364 0.0295,0.34605 -0.0386,0.34515 -0.10516,0.33101 -0.16771,0.30412 -0.22383,0.26557 -0.27133,0.21679 -0.30841,0.1597 -0.33364,0.0965 -0.34605,0.0295 -0.34516,-0.0386 -0.331,-0.10516 -0.30413,-0.16772 -0.26556,-0.22382 -0.21679,-0.27133 -0.1597,-0.30841 -0.0965,-0.33364 -0.0295,-0.34605 0.0386,-0.34516 -14.81031,-3.14803 -2.64162,8.70825 -6.80836,69.1265 5.9553,60.46522 14.62152,-3.1079 -0.0386,-0.34515 0.0295,-0.34605 0.0965,-0.33364 0.15969,-0.30841 0.2168,-0.27134 0.26556,-0.22382 0.30413,-0.16771 0.331,-0.10516 0.34515,-0.0386 0.34605,0.0295 0.33365,0.0965 0.30841,0.15969 0.27133,0.2168 0.22382,0.26556 0.16772,0.30413 0.10515,0.331 0.0386,0.34516 -0.0295,0.34605 -0.0965,0.33364 -0.15969,0.30841 -0.2168,0.27133 -0.26556,0.22382 -0.30413,0.16772 -0.331,0.10516 1.10504,5.19881 0.34516,-0.0386 0.34605,0.0295 0.33364,0.0965 0.30841,0.1597 0.27134,0.21679 0.22382,0.26557 0.16771,0.30412 0.10516,0.331 0.0386,0.34516 -0.0295,0.34605 -0.0965,0.33364 -0.15969,0.30841 -0.2168,0.27133 -0.26556,0.22383 -0.30413,0.16771 -0.331,0.10516 -0.34516,0.0386 -0.34605,-0.0295 -0.33364,-0.0965 -0.30841,-0.15969 -0.27133,-0.2168 -0.22382,-0.26556 -0.16772,-0.30413 -0.10516,-0.331 -15.54932,3.30511 20.10259,66.26936 32.74367,61.2591 0.39627,0.48285 12.64892,-9.18998 -0.17561,-0.29963 -0.11379,-0.32814 -0.0476,-0.34403 0.0205,-0.3467 0.0877,-0.33605 0.15157,-0.31249 0.20962,-0.27691 0.25961,-0.2307 0.29963,-0.17562 0.32814,-0.11378 0.34403,-0.0476 0.3467,0.0204 0.33605,0.0877 0.31249,0.15157 0.27691,0.20961 0.2307,0.25962 0.17562,0.29963 0.11378,0.32813 0.0476,0.34403 -0.0205,0.34671 -0.0877,0.33605 -0.15157,0.31249 -0.20961,0.27691 -0.25962,0.2307 3.12406,4.29989 0.29963,-0.17562 0.32814,-0.11378 0.34403,-0.0476 0.3467,0.0204 0.33605,0.0877 0.31249,0.15157 0.27691,0.20961 0.2307,0.25962 0.17562,0.29963 0.11378,0.32813 0.0476,0.34403 -0.0204,0.34671 -0.0877,0.33605 -0.15157,0.31248 -0.20961,0.27692 -0.25962,0.2307 -0.29963,0.17561 -0.32813,0.11379 -0.34403,0.0476 -0.34671,-0.0204 -0.33605,-0.0877 -0.31249,-0.15157 -0.27691,-0.20962 -0.2307,-0.25961 -12.22629,8.88292 38.03991,46.35177 53.69405,44.06557 8.72417,4.66317 7.43129,-12.87136 -0.28231,-0.2023 -0.23741,-0.25348 -0.1834,-0.29494 -0.12234,-0.32504 -0.0566,-0.34267 0.0114,-0.34712 0.0789,-0.33823 0.14334,-0.31635 0.20229,-0.2823 0.25349,-0.23742 0.29493,-0.1834 0.32505,-0.12233 0.34266,-0.0566 0.34712,0.0114 0.33823,0.0789 0.31635,0.14333 0.28231,0.2023 0.23741,0.25349 0.1834,0.29493 0.12234,0.32504 0.0566,0.34267 -0.0114,0.34712 -0.0789,0.33823 -0.14333,0.31635 4.60289,2.65748 0.2023,-0.28231 0.25348,-0.23741 0.29494,-0.1834 0.32504,-0.12234 0.34267,-0.0566 0.34711,0.0114 0.33824,0.0789 0.31634,0.14334 0.28231,0.20229 0.23742,0.25349 0.1834,0.29493 0.12233,0.32505 0.0566,0.34266 -0.0114,0.34712 -0.0789,0.33823 -0.14334,0.31635 -0.20229,0.28231 -0.25349,0.23741 -0.29493,0.1834 -0.32504,0.12234 -0.34267,0.0566 -0.34712,-0.0114 -0.33823,-0.0789 -0.31635,-0.14334 -7.28629,12.62022 44.71846,23.90247 66.46996,20.1634 19.0427,1.8756 1.4982,-14.2547 -0.3402,-0.07 -0.32,-0.135 -0.2875,-0.1948 -0.244,-0.2472 -0.191,-0.29 -0.1308,-0.3218 -0.066,-0.341 0,-0.3473 0.07,-0.3402 0.135,-0.32 0.1949,-0.2875 0.2471,-0.244 0.2901,-0.191 0.3217,-0.1308 0.3411,-0.066 0.3473,0 0.3401,0.07 0.32,0.135 0.2875,0.1948 0.244,0.2472 0.1911,0.29 0.1308,0.3218 0.065,0.341 0,0.3473 5.2859,0.5556 0.07,-0.3402 0.135,-0.32 0.1948,-0.2875 0.2472,-0.2439 0.29,-0.1911 0.3217,-0.1308 0.3411,-0.066 0.3473,0 0.3402,0.07 0.32,0.135 0.2875,0.1949 0.2439,0.2472 0.1911,0.29 0.1308,0.3217 0.065,0.3411 0,0.3473 -0.07,0.3402 -0.135,0.32 -0.1949,0.2875 -0.2471,0.2439 -0.2901,0.1911 -0.3217,0.1308 -0.3411,0.066 -0.3473,0 -1.4921,14.1971 41.2679,4.0645 69.1265,-6.8084 27.1438,-8.2339 -4.3404,-13.3583 -0.3392,0.074 -0.3472,0.01 -0.3419,-0.061 -0.3234,-0.1266 -0.2925,-0.1873 -0.2504,-0.2407 -0.1986,-0.2849 -0.1392,-0.3182 -0.074,-0.3392 -0.01,-0.3473 0.061,-0.3419 0.1266,-0.3234 0.1873,-0.2925 0.2407,-0.2503 0.2849,-0.1986 0.3182,-0.1392 0.3392,-0.074 0.3473,-0.01 0.3419,0.061 0.3234,0.1266 0.2925,0.1872 0.2504,0.2407 0.1985,0.285 0.1392,0.3182 5.0548,-1.6425 -0.074,-0.3392 -0.01,-0.3472 0.061,-0.3419 0.1265,-0.3234 0.1873,-0.2925 0.2407,-0.2504 0.2849,-0.1986 0.3182,-0.1392 0.3393,-0.074 0.3472,-0.01 0.3419,0.061 0.3234,0.1266 0.2925,0.1873 0.2504,0.2407 0.1986,0.2849 0.1391,0.3182 0.074,0.3392 0.01,0.3473 -0.061,0.3419 -0.1266,0.3234 -0.1872,0.2925 -0.2407,0.2504 -0.2849,0.1985 -0.3182,0.1392 4.3941,13.5237 30.8477,-9.3575 61.2591,-32.74363 29.0621,-23.85058 -9.3678,-10.40395 -0.2796,0.20598 -0.3145,0.14746 -0.3372,0.0833 -0.3469,0.0159 -0.3434,-0.0521 -0.3266,-0.11808 -0.2973,-0.17952 -0.2566,-0.23408 -0.2059,-0.27963 -0.1475,-0.31445 -0.083,-0.33717 -0.016,-0.34694 0.052,-0.34337 0.1181,-0.32662 0.1795,-0.29731 0.2341,-0.25657 0.2796,-0.20598 0.3144,-0.14746 0.3372,-0.0833 0.347,-0.0159 0.3433,0.0521 0.3266,0.11808 0.2974,0.17952 0.2565,0.23408 3.9498,-3.55641 -0.206,-0.27963 -0.1474,-0.31444 -0.083,-0.33718 -0.016,-0.34694 0.052,-0.34337 0.118,-0.32662 0.1796,-0.29731 0.234,-0.25657 0.2797,-0.20597 0.3144,-0.14747 0.3372,-0.0833 0.3469,-0.0159 0.3434,0.0521 0.3266,0.11808 0.2973,0.17952 0.2566,0.23408 0.206,0.27963 0.1474,0.31445 0.083,0.33717 0.016,0.34694 -0.052,0.34337 -0.118,0.32662 -0.1796,0.29731 -0.234,0.25657 9.6395,10.70576 17.7773,-14.58946 44.0656,-53.69405 22.08,-41.3089 -12.9689,-5.77413 -0.1717,0.3019 -0.2273,0.26261 -0.2741,0.21323 -0.3105,0.15564 -0.3348,0.0921 -0.3465,0.025 -0.3446,-0.0431 -0.3296,-0.10948 -0.3019,-0.17168 -0.2626,-0.22728 -0.2132,-0.27415 -0.1557,-0.31048 -0.092,-0.33487 -0.025,-0.34641 0.043,-0.34462 0.1094,-0.3296 0.1717,-0.3019 0.2273,-0.26261 0.2741,-0.21323 0.3105,-0.15564 0.3349,-0.0921 0.3464,-0.025 0.3446,0.0431 0.3296,0.10948 2.1618,-4.85545 -0.3019,-0.17168 -0.2626,-0.22728 -0.2132,-0.27415 -0.1557,-0.31048 -0.092,-0.33487 -0.025,-0.34641 0.043,-0.34462 0.1095,-0.3296 0.1717,-0.3019 0.2273,-0.26261 0.2741,-0.21323 0.3105,-0.15564 0.3349,-0.0921 0.3464,-0.025 0.3446,0.0431 0.3296,0.10948 0.3019,0.17168 0.2626,0.22728 0.2132,0.27415 0.1557,0.31048 0.092,0.33487 0.025,0.34641 -0.043,0.34462 -0.1095,0.3296 13.5525,6.03398 6.477,-12.11762 20.1635,-66.47 5.4997,-55.83909 -14.6362,0 -0.034,0.34563 -0.1008,0.33235 -0.1637,0.3063 -0.2203,0.26847 -0.2685,0.22032 -0.3063,0.16372 -0.3323,0.10082 -0.3457,0.034 -0.3456,-0.034 -0.3324,-0.10082 -0.3063,-0.16372 -0.2684,-0.22032 -0.2204,-0.26847 -0.1637,-0.3063 -0.1008,-0.33235 -0.034,-0.34563 0.034,-0.34564 0.1008,-0.33235 0.1637,-0.30629 0.2204,-0.26847 0.2684,-0.22033 0.3063,-0.16372 0.3324,-0.10081 0.3456,-0.034 0,-5.31496 -0.3456,-0.034 -0.3324,-0.10082 -0.3063,-0.16371 -0.2684,-0.22033 -0.2204,-0.26847 -0.1637,-0.3063 -0.1008,-0.33235 -0.034,-0.34563 0.034,-0.34563 0.1008,-0.33235 0.1637,-0.3063 0.2204,-0.26847 0.2684,-0.22033 0.3063,-0.16371 0.3324,-0.10082 0.3456,-0.034 0.3457,0.034 0.3323,0.10082 0.3063,0.16371 0.2685,0.22033 0.2203,0.26847 0.1637,0.3063 0.1008,0.33235 0.034,0.34563 15.5086,0 0.4363,-4.42913 -6.8084,-69.1265 -18.9897,-62.60077 -13.9973,6.232 0.1094,0.32959 0.043,0.34463 -0.025,0.3464 -0.092,0.33488 -0.1557,0.31047 -0.2132,0.27415 -0.2626,0.22728 -0.3019,0.17168 -0.3296,0.10948 -0.3447,0.0431 -0.3464,-0.025 -0.3348,-0.0921 -0.3105,-0.15564 -0.2742,-0.21323 -0.2272,-0.26261 -0.1717,-0.3019 0,0 z"
           inkscape:connector-curvature="0" />
        <path
           id="path3488"
           style="fill:none;stroke:#000000"
           d="m 1090.6744,695.91683 -2.6575,4.60289 -5.3149,0 -2.6575,-4.60289 2.6575,-4.6029 5.3149,0 2.6575,4.6029 0,0 z"
           inkscape:connector-curvature="0" />
      </g>
    </g>
    <path
       id="path3454-3"
       style="fill:none;stroke:#000000"
       d="m 648.21461,35.860693 0.3323,0.10082 0.30632,0.16372 0.2685,0.22033 0.2203,0.26847 0.1637,0.30629 0.1009,0.33235 0.034,0.34564 -0.034,0.34563 -0.1009,0.33235 -0.1637,0.30629 -0.2203,0.26847 -0.2685,0.22033 -0.30632,0.16372 -0.3323,0.10082 -0.3456,0.034 -0.3457,-0.034 -0.3323,-0.10082 -0.3063,-0.16372 -0.2685,-0.22033 -0.2203,-0.26847 -0.1637,-0.30629 -0.1009,-0.33235 -0.034,-0.34563 -5.3149,0 -0.034,0.34563 -0.1008,0.33235 -0.1637,0.30629 -0.2204,0.26847 -0.2684,0.22033 -0.3063,0.16372 -0.3324,0.10082 -0.3456,0.034 -0.3457,-0.034 -0.3323,-0.10082 -0.3063,-0.16372 -0.2685,-0.22033 -0.2203,-0.26847 -0.1637,-0.30629 -0.1008,-0.33235 -0.034,-0.34563 0.034,-0.34564 0.1008,-0.33235 0.1637,-0.30629 0.2203,-0.26847 0.2685,-0.22033 0.3063,-0.16372 0.3323,-0.10082 0.3457,-0.034 0,-15.94488 -35.4331,0 0,35.43307 194.88194,0 0,-35.43307 -26.5748,0 0,15.94488 0.3456,0.034 0.3324,0.10082 0.3063,0.16372 0.2684,0.22033 0.2204,0.26847 0.1637,0.30629 0.1008,0.33235 0.034,0.34564 -0.034,0.34563 -0.1008,0.33235 -0.1637,0.30629 -0.2204,0.26847 -0.2684,0.22033 -0.3063,0.16372 -0.3324,0.10082 -0.3456,0.034 -0.3456,-0.034 -0.3324,-0.10082 -0.3063,-0.16372 -0.2685,-0.22033 -0.2203,-0.26847 -0.16371,-0.30629 -0.10079,-0.33235 -0.034,-0.34563 -5.315,0 -0.034,0.34563 -0.1008,0.33235 -0.1637,0.30629 -0.2203,0.26847 -0.26851,0.22033 -0.3063,0.16372 -0.3324,0.10082 -0.3456,0.034 -0.3456,-0.034 -0.3324,-0.10082 -0.3063,-0.16372 -0.2684,-0.22033 -0.2204,-0.26847 -0.1637,-0.30629 -0.1008,-0.33235 -0.034,-0.34563 0.034,-0.34564 0.1008,-0.33235 0.1637,-0.30629 0.2204,-0.26847 0.2684,-0.22033 0.3063,-0.16372 0.3324,-0.10082 0.3456,-0.034 0,-15.94488 -115.15753,0 0,15.94488 0.3457,0.034 0,0 z"
       inkscape:connector-curvature="0" />
    <path
       id="path3456-5"
       style="fill:none;stroke:#000000"
       d="m 526.57667,-22.585245 0,35.43308 194.88192,0 0,-35.43308 -26.5748,0 0,15.9448906 0.3456,0.034 0.3324,0.10082 0.3062,0.16371 0.2685,0.22033 0.2203,0.26847 0.1638,0.3063 0.1008,0.33235 0.034,0.34563 -0.034,0.34563 -0.1008,0.33235 -0.1638,0.30631 -0.2203,0.26846 -0.2685,0.22033 -0.3062,0.16371 -0.3324,0.10082 -0.3456,0.034 -0.3457,-0.034 -0.3323,-0.10082 -0.3063,-0.16371 -0.2685,-0.22033 -0.2203,-0.26846 -0.1637,-0.30631 -0.1008,-0.33235 -0.034,-0.34563 -5.315,0 -0.034,0.34563 -0.1008,0.33235 -0.1637,0.30631 -0.2204,0.26846 -0.2684,0.22033 -0.3063,0.16371 -0.3324,0.10082 -0.3456,0.034 -0.3456,-0.034 -0.3324,-0.10082 -0.3063,-0.16371 -0.2685,-0.22033 -0.2203,-0.26846 -0.1637,-0.30631 -0.1008,-0.33235 -0.034,-0.34563 0.034,-0.34563 0.1008,-0.33235 0.1637,-0.3063 0.2203,-0.26847 0.2685,-0.22033 0.3063,-0.16371 0.3324,-0.10082 0.3456,-0.034 0,-15.9448906 -115.1575,0 0,15.9448906 0.3456,0.034 0.3324,0.10082 0.3063,0.16371 0.2685,0.22033 0.2203,0.26847 0.1637,0.3063 0.1008,0.33235 0.034,0.34563 -0.034,0.34563 -0.1008,0.33235 -0.1637,0.30631 -0.2203,0.26846 -0.2685,0.22033 -0.3063,0.16371 -0.3324,0.10082 -0.3456,0.034 -0.3456,-0.034 -0.33242,-0.10082 -0.3063,-0.16371 -0.2684,-0.22033 -0.2204,-0.26846 -0.1637,-0.30631 -0.1008,-0.33235 -0.034,-0.34563 -5.315,0 -0.034,0.34563 -0.1008,0.33235 -0.1637,0.30631 -0.2203,0.26846 -0.2685,0.22033 -0.3063,0.16371 -0.3323,0.10082 -0.3457,0.034 -0.3456,-0.034 -0.3324,-0.10082 -0.3063,-0.16371 -0.2684,-0.22033 -0.2204,-0.26846 -0.1637,-0.30631 -0.1008,-0.33235 -0.034,-0.34563 0.034,-0.34563 0.1008,-0.33235 0.1637,-0.3063 0.2204,-0.26847 0.2684,-0.22033 0.3063,-0.16371 0.3324,-0.10082 0.3456,-0.034 0,-15.9448906 -35.433,0 0,0 z"
       inkscape:connector-curvature="0" />
    <path
       id="path3460-2"
       style="fill:none;stroke:#000000"
       d="m 1025.5163,378.48229 0,35.43307 194.8819,0 0,-35.43307 -26.5748,0 0,15.94488 0.3456,0.034 0.3324,0.10082 0.3062,0.16372 0.2685,0.22033 0.2203,0.26847 0.1638,0.30628 0.1008,0.33236 0.034,0.34564 -0.034,0.34564 -0.1008,0.33235 -0.1638,0.30629 -0.2203,0.26846 -0.2685,0.22033 -0.3062,0.16372 -0.3324,0.10082 -0.3456,0.034 -0.3457,-0.034 -0.3323,-0.10082 -0.3063,-0.16372 -0.2685,-0.22033 -0.2203,-0.26846 -0.1637,-0.30629 -0.1008,-0.33235 -0.034,-0.34564 -5.315,0 -0.034,0.34564 -0.1008,0.33235 -0.1637,0.30629 -0.2204,0.26846 -0.2684,0.22033 -0.3063,0.16372 -0.3324,0.10082 -0.3456,0.034 -0.3456,-0.034 -0.3324,-0.10082 -0.3063,-0.16372 -0.2685,-0.22033 -0.2203,-0.26846 -0.1637,-0.30629 -0.1008,-0.33235 -0.034,-0.34564 0.034,-0.34564 0.1008,-0.33236 0.1637,-0.30628 0.2203,-0.26847 0.2685,-0.22033 0.3063,-0.16372 0.3324,-0.10082 0.3456,-0.034 0,-15.94488 -115.1575,0 0,15.94488 0.3456,0.034 0.3324,0.10082 0.3063,0.16372 0.2685,0.22033 0.2203,0.26847 0.1637,0.30628 0.1008,0.33236 0.034,0.34564 -0.034,0.34564 -0.1008,0.33235 -0.1637,0.30629 -0.2203,0.26846 -0.2685,0.22033 -0.3063,0.16372 -0.3324,0.10082 -0.3456,0.034 -0.3456,-0.034 -0.3324,-0.10082 -0.3063,-0.16372 -0.2684,-0.22033 -0.2204,-0.26846 -0.1637,-0.30629 -0.1008,-0.33235 -0.034,-0.34564 -5.315,0 -0.034,0.34564 -0.1008,0.33235 -0.1637,0.30629 -0.2203,0.26846 -0.2685,0.22033 -0.3063,0.16372 -0.3323,0.10082 -0.3457,0.034 -0.3456,-0.034 -0.3324,-0.10082 -0.3063,-0.16372 -0.2684,-0.22033 -0.2204,-0.26846 -0.1637,-0.30629 -0.1008,-0.33235 -0.034,-0.34564 0.034,-0.34564 0.1008,-0.33236 0.1637,-0.30628 0.2204,-0.26847 0.2684,-0.22033 0.3063,-0.16372 0.3324,-0.10082 0.3456,-0.034 0,-15.94488 -35.433,0 0,0 z"
       inkscape:connector-curvature="0" />
    <path
       id="path3464-1"
       style="fill:none;stroke:#000000"
       d="m 1411.4394,137.87146 0.1008,-0.33235 0.1637,-0.30629 0.2203,-0.26847 0.2685,-0.22033 0.3063,-0.16372 0.3323,-0.10082 0.3457,-0.034 0.3456,0.034 0.3324,0.10082 0.3063,0.16372 0.2684,0.22033 0.2204,0.26847 0.1637,0.30629 0.1008,0.33235 0.034,0.34563 -0.034,0.34564 -0.1008,0.33235 -0.1637,0.30629 -0.2204,0.26847 -0.2684,0.22033 -0.3063,0.16372 -0.3324,0.10081 -0.3456,0.0341 0,5.31496 0.3456,0.034 0.3324,0.10082 0.3063,0.16371 0.2684,0.22033 0.2204,0.26847 0.1637,0.3063 0.1008,0.33235 0.034,0.34563 -0.034,0.34563 -0.1008,0.33235 -0.1637,0.3063 -0.2204,0.26847 -0.2684,0.22033 -0.3063,0.16371 -0.3324,0.10082 -0.3456,0.034 -0.3457,-0.034 -0.3323,-0.10082 -0.3063,-0.16371 -0.2685,-0.22033 -0.2203,-0.26847 -0.1637,-0.3063 -0.1008,-0.33235 -0.034,-0.34563 -15.9449,0 0,35.43307 35.433,0 0,-194.881886 -35.433,0 0,26.57481 15.9449,0 0.034,-0.34564 0.1008,-0.33235 0.1637,-0.30629 0.2203,-0.26847 0.2685,-0.22033 0.3063,-0.16372 0.3323,-0.10082 0.3457,-0.034 0.3456,0.034 0.3324,0.10082 0.3063,0.16372 0.2684,0.22033 0.2204,0.26847 0.1637,0.30629 0.1008,0.33235 0.034,0.34564 -0.034,0.34564 -0.1008,0.33235 -0.1637,0.30629 -0.2204,0.26846 -0.2684,0.22033 -0.3063,0.16372 -0.3324,0.10082 -0.3456,0.034 0,5.31496 0.3456,0.034 0.3324,0.10082 0.3063,0.16372 0.2684,0.22032 0.2204,0.26847 0.1637,0.3063 0.1008,0.33236 0.034,0.34563 -0.034,0.34563 -0.1008,0.33236 -0.1637,0.30629 -0.2204,0.26847 -0.2684,0.22033 -0.3063,0.16372 -0.3324,0.10081 -0.3456,0.034 -0.3457,-0.034 -0.3323,-0.10081 -0.3063,-0.16372 -0.2685,-0.22033 -0.2203,-0.26847 -0.1637,-0.30629 -0.1008,-0.33236 -0.034,-0.34563 -15.9449,0 0,115.157476 15.9449,0 0.034,-0.34563 0,0 z"
       inkscape:connector-curvature="0" />
    <path
       id="path3466-2"
       style="fill:none;stroke:#000000"
       d="m 1326.5707,429.74005 35.4331,0 0,-194.88189 -35.4331,0 0,26.57481 15.9449,0 0.034,-0.34564 0.1008,-0.33235 0.1637,-0.30629 0.2203,-0.26847 0.2685,-0.22033 0.3063,-0.16372 0.3324,-0.10082 0.3456,-0.034 0.3456,0.034 0.3324,0.10082 0.3063,0.16372 0.2685,0.22033 0.2203,0.26847 0.1637,0.30629 0.1008,0.33235 0.034,0.34564 -0.034,0.34564 -0.1008,0.33234 -0.1637,0.30629 -0.2203,0.26846 -0.2685,0.22033 -0.3063,0.16372 -0.3324,0.10082 -0.3456,0.034 0,5.31497 0.3456,0.034 0.3324,0.10082 0.3063,0.16372 0.2685,0.22032 0.2203,0.26847 0.1637,0.30629 0.1008,0.33236 0.034,0.34564 -0.034,0.34564 -0.1008,0.33236 -0.1637,0.30629 -0.2203,0.26846 -0.2685,0.22032 -0.3063,0.16373 -0.3324,0.10082 -0.3456,0.034 -0.3456,-0.034 -0.3324,-0.10082 -0.3063,-0.16373 -0.2685,-0.22032 -0.2203,-0.26846 -0.1637,-0.30629 -0.1008,-0.33236 -0.034,-0.34564 -15.9449,0 0,115.15749 15.9449,0 0.034,-0.34564 0.1008,-0.33236 0.1637,-0.30629 0.2203,-0.26846 0.2685,-0.22032 0.3063,-0.16373 0.3324,-0.10082 0.3456,-0.034 0.3456,0.034 0.3324,0.10082 0.3063,0.16373 0.2685,0.22032 0.2203,0.26846 0.1637,0.30629 0.1008,0.33236 0.034,0.34564 -0.034,0.34564 -0.1008,0.33235 -0.1637,0.30629 -0.2203,0.26847 -0.2685,0.22032 -0.3063,0.16373 -0.3324,0.10081 -0.3456,0.0341 0,5.31496 0.3456,0.034 0.3324,0.10082 0.3063,0.16371 0.2685,0.22032 0.2203,0.26847 0.1637,0.3063 0.1008,0.33236 0.034,0.34562 -0.034,0.34564 -0.1008,0.33234 -0.1637,0.3063 -0.2203,0.26847 -0.2685,0.22032 -0.3063,0.16372 -0.3324,0.10082 -0.3456,0.034 -0.3456,-0.034 -0.3324,-0.10082 -0.3063,-0.16372 -0.2685,-0.22032 -0.2203,-0.26847 -0.1637,-0.3063 -0.1008,-0.33234 -0.034,-0.34564 -15.9449,0 0,35.43308 0,0 z"
       inkscape:connector-curvature="0" />
    <path
       id="path3468-7"
       style="fill:none;stroke:#000000"
       d="m 831.33577,530.87306 35.43307,0 0,-194.88189 -35.43307,0 0,26.57481 15.94488,0 0.034,-0.34564 0.10082,-0.33235 0.16372,-0.30629 0.22032,-0.26847 0.26847,-0.22033 0.3063,-0.16372 0.33235,-0.10082 0.34563,-0.034 0.34563,0.034 0.33235,0.10082 0.3063,0.16372 0.26847,0.22033 0.22033,0.26847 0.16372,0.30629 0.10081,0.33235 0.034,0.34564 -0.034,0.34563 -0.10081,0.33236 -0.16372,0.30629 -0.22033,0.26846 -0.26847,0.22033 -0.3063,0.16372 -0.33235,0.10082 -0.34563,0.034 0,5.31496 0.34563,0.034 0.33235,0.10082 0.3063,0.16372 0.26847,0.22032 0.22033,0.26847 0.16372,0.3063 0.10081,0.33235 0.034,0.34564 -0.034,0.34563 -0.10081,0.33236 -0.16372,0.30629 -0.22033,0.26847 -0.26847,0.22033 -0.3063,0.16372 -0.33235,0.10081 -0.34563,0.034 -0.34563,-0.034 -0.33235,-0.10081 -0.3063,-0.16372 -0.26847,-0.22033 -0.22032,-0.26847 -0.16372,-0.30629 -0.10082,-0.33236 -0.034,-0.34563 -15.94488,0 0,115.15748 15.94488,0 0.034,-0.34563 0.10082,-0.33235 0.16372,-0.30629 0.22032,-0.26847 0.26847,-0.22033 0.3063,-0.16372 0.33235,-0.10082 0.34563,-0.034 0.34563,0.034 0.33235,0.10082 0.3063,0.16372 0.26847,0.22033 0.22033,0.26847 0.16372,0.30629 0.10081,0.33235 0.034,0.34563 -0.034,0.34564 -0.10081,0.33235 -0.16372,0.30629 -0.22033,0.26847 -0.26847,0.22033 -0.3063,0.16372 -0.33235,0.10081 -0.34563,0.0341 0,5.31496 0.34563,0.034 0.33235,0.10082 0.3063,0.16371 0.26847,0.22033 0.22033,0.26847 0.16372,0.3063 0.10081,0.33235 0.034,0.34563 -0.034,0.34563 -0.10081,0.33235 -0.16372,0.3063 -0.22033,0.26847 -0.26847,0.22033 -0.3063,0.16371 -0.33235,0.10082 -0.34563,0.034 -0.34563,-0.034 -0.33235,-0.10082 -0.3063,-0.16371 -0.26847,-0.22033 -0.22032,-0.26847 -0.16372,-0.3063 -0.10082,-0.33235 -0.034,-0.34563 -15.94488,0 0,35.43307 0,0 z"
       inkscape:connector-curvature="0" />
    <path
       id="path3476-6"
       style="fill:none;stroke:#000000"
       d="m 1300.2229,314.49311 0.1008,-0.33235 0.1637,-0.30629 0.2204,-0.26847 0.2684,-0.22033 0.3063,-0.16372 0.3324,-0.10082 0.3456,-0.034 0.3457,0.034 0.3323,0.10082 0.3063,0.16372 0.2685,0.22033 0.2203,0.26847 0.1637,0.30629 0.1008,0.33235 0.034,0.34563 -0.034,0.34564 -0.1008,0.33235 -0.1637,0.30629 -0.2203,0.26847 -0.2685,0.22033 -0.3063,0.16372 -0.3323,0.10082 -0.3457,0.034 0,5.31496 0.3457,0.034 0.3323,0.10083 0.3063,0.16372 0.2685,0.22032 0.2203,0.26846 0.1637,0.30631 0.1008,0.33235 0.034,0.34563 -0.034,0.34564 -0.1008,0.33235 -0.1637,0.30629 -0.2203,0.26847 -0.2685,0.22032 -0.3063,0.16373 -0.3323,0.10082 -0.3457,0.034 -0.3456,-0.034 -0.3324,-0.10082 -0.3063,-0.16373 -0.2684,-0.22032 -0.2204,-0.26847 -0.1637,-0.30629 -0.1008,-0.33235 -0.034,-0.34564 -15.9449,0 0,35.43308 35.4331,0 0,-194.88189 -35.4331,0 0,26.57481 15.9449,0 0.034,-0.34564 0.1008,-0.33235 0.1638,-0.30629 0.2203,-0.26847 0.2684,-0.22033 0.3063,-0.16372 0.3324,-0.10082 0.3456,-0.034 0.3457,0.034 0.3323,0.10082 0.3063,0.16372 0.2685,0.22033 0.2203,0.26847 0.1637,0.30629 0.1008,0.33235 0.034,0.34564 -0.034,0.34563 -0.1008,0.33236 -0.1637,0.30629 -0.2203,0.26846 -0.2685,0.22033 -0.3063,0.16372 -0.3323,0.10082 -0.3457,0.034 0,5.31496 0.3457,0.034 0.3323,0.10082 0.3063,0.16372 0.2685,0.22033 0.2203,0.26847 0.1637,0.30629 0.1008,0.33235 0.034,0.34563 -0.034,0.34564 -0.1008,0.33235 -0.1637,0.30629 -0.2203,0.26847 -0.2685,0.22033 -0.3063,0.16372 -0.3323,0.10082 -0.3457,0.034 -0.3456,-0.034 -0.3324,-0.10082 -0.3063,-0.16372 -0.2684,-0.22033 -0.2203,-0.26847 -0.1638,-0.30629 -0.1008,-0.33235 -0.034,-0.34564 -15.9449,0 0,115.15748 15.9449,0 0.034,-0.34564 0,0 z"
       inkscape:connector-curvature="0" />
    <path
       id="path3458-6"
       style="fill:none;stroke:#000000"
       d="m 1074.7721,536.42794 0,35.43307 194.8819,0 0,-35.43307 -26.5748,0 0,15.94488 0.3457,0.034 0.3323,0.10082 0.3063,0.16372 0.2685,0.22032 0.2203,0.26847 0.1637,0.3063 0.1008,0.33235 0.034,0.34563 -0.034,0.34563 -0.1008,0.33235 -0.1637,0.3063 -0.2203,0.26847 -0.2685,0.22033 -0.3063,0.16372 -0.3323,0.10081 -0.3457,0.034 -0.3456,-0.034 -0.3324,-0.10081 -0.3062,-0.16372 -0.2685,-0.22033 -0.2203,-0.26847 -0.1638,-0.3063 -0.1008,-0.33235 -0.034,-0.34563 -5.3149,0 -0.034,0.34563 -0.1009,0.33235 -0.1637,0.3063 -0.2203,0.26847 -0.2685,0.22033 -0.3063,0.16372 -0.3323,0.10081 -0.3457,0.034 -0.3456,-0.034 -0.3323,-0.10081 -0.3063,-0.16372 -0.2685,-0.22033 -0.2203,-0.26847 -0.1638,-0.3063 -0.1008,-0.33235 -0.034,-0.34563 0.034,-0.34563 0.1008,-0.33235 0.1638,-0.3063 0.2203,-0.26847 0.2685,-0.22032 0.3063,-0.16372 0.3323,-0.10082 0.3456,-0.034 0,-15.94488 -115.1575,0 0,15.94488 0.3457,0.034 0.3323,0.10082 0.3063,0.16372 0.2685,0.22032 0.2203,0.26847 0.1637,0.3063 0.1008,0.33235 0.034,0.34563 -0.034,0.34563 -0.1008,0.33235 -0.1637,0.3063 -0.2203,0.26847 -0.2685,0.22033 -0.3063,0.16372 -0.3323,0.10081 -0.3457,0.034 -0.3456,-0.034 -0.3323,-0.10081 -0.3063,-0.16372 -0.2685,-0.22033 -0.2203,-0.26847 -0.1638,-0.3063 -0.1008,-0.33235 -0.034,-0.34563 -5.3149,0 -0.034,0.34563 -0.1008,0.33235 -0.1638,0.3063 -0.2203,0.26847 -0.2685,0.22033 -0.3063,0.16372 -0.3323,0.10081 -0.3456,0.034 -0.3457,-0.034 -0.3323,-0.10081 -0.3063,-0.16372 -0.2685,-0.22033 -0.2203,-0.26847 -0.1637,-0.3063 -0.1009,-0.33235 -0.034,-0.34563 0.034,-0.34563 0.1009,-0.33235 0.1637,-0.3063 0.2203,-0.26847 0.2685,-0.22032 0.3063,-0.16372 0.3323,-0.10082 0.3457,-0.034 0,-15.94488 -35.4331,0 0,0 z"
       inkscape:connector-curvature="0" />
    <path
       id="path3462-9"
       style="fill:none;stroke:#000000"
       d="m 1244.5337,507.98473 -5.315,0 -0.034,0.34563 -0.1008,0.33235 -0.1637,0.30629 -0.2204,0.26848 -0.2684,0.22033 -0.3063,0.16372 -0.3324,0.10082 -0.3456,0.034 -0.3456,-0.034 -0.3324,-0.10082 -0.3063,-0.16372 -0.2685,-0.22033 -0.2203,-0.26848 -0.1637,-0.30629 -0.1008,-0.33235 -0.034,-0.34563 0.034,-0.34564 0.1008,-0.33235 0.1637,-0.30629 0.2203,-0.26847 0.2685,-0.22033 0.3063,-0.16372 0.3324,-0.10082 0.3456,-0.034 0,-15.94488 -115.1575,0 0,15.94488 0.3456,0.034 0.3324,0.10082 0.3063,0.16372 0.2684,0.22033 0.2204,0.26847 0.1637,0.30629 0.1008,0.33235 0.034,0.34564 -0.034,0.34563 -0.1008,0.33235 -0.1637,0.30629 -0.2204,0.26848 -0.2684,0.22033 -0.3063,0.16372 -0.3324,0.10082 -0.3456,0.034 -0.3456,-0.034 -0.3324,-0.10082 -0.3063,-0.16372 -0.2684,-0.22033 -0.2204,-0.26848 -0.1637,-0.30629 -0.1008,-0.33235 -0.034,-0.34563 -5.315,0 -0.034,0.34563 -0.1008,0.33235 -0.1637,0.30629 -0.2203,0.26848 -0.2685,0.22033 -0.3063,0.16372 -0.3324,0.10082 -0.3456,0.034 -0.3456,-0.034 -0.3324,-0.10082 -0.3063,-0.16372 -0.2684,-0.22033 -0.2204,-0.26848 -0.1637,-0.30629 -0.1008,-0.33235 -0.034,-0.34563 0.034,-0.34564 0.1008,-0.33235 0.1637,-0.30629 0.2204,-0.26847 0.2684,-0.22033 0.3063,-0.16372 0.3324,-0.10082 0.3456,-0.034 0,-15.94488 -35.4331,0 0,35.43308 194.882,0 0,-35.43308 -26.5748,0 0,15.94488 0.3456,0.034 0.3323,0.10082 0.3063,0.16372 0.2685,0.22033 0.2203,0.26847 0.1637,0.30629 0.1009,0.33235 0.034,0.34564 -0.034,0.34563 -0.1009,0.33235 -0.1637,0.30629 -0.2203,0.26848 -0.2685,0.22033 -0.3063,0.16372 -0.3323,0.10082 -0.3456,0.034 -0.3457,-0.034 -0.3323,-0.10082 -0.3063,-0.16372 -0.2685,-0.22033 -0.2203,-0.26848 -0.1637,-0.30629 -0.1009,-0.33235 -0.034,-0.34563 0,0 z"
       inkscape:connector-curvature="0" />
    <path
       id="path3470-0"
       style="fill:none;stroke:#000000"
       d="m 1039.6765,464.51618 -5.315,0 -0.034,0.34564 -0.1008,0.33235 -0.1637,0.30629 -0.2203,0.26847 -0.2685,0.22033 -0.3063,0.16372 -0.3323,0.10082 -0.3457,0.034 -0.3456,-0.034 -0.3324,-0.10082 -0.3063,-0.16372 -0.2684,-0.22033 -0.2204,-0.26847 -0.1637,-0.30629 -0.1008,-0.33235 -0.034,-0.34564 0.034,-0.34563 0.1008,-0.33235 0.1637,-0.30629 0.2204,-0.26847 0.2684,-0.22033 0.3063,-0.16372 0.3324,-0.10082 0.3456,-0.034 0,-15.94488 -115.1575,0 0,15.94488 0.3457,0.034 0.3323,0.10082 0.3063,0.16372 0.2685,0.22033 0.2203,0.26847 0.1637,0.30629 0.1009,0.33235 0.034,0.34563 -0.034,0.34564 -0.1009,0.33235 -0.1637,0.30629 -0.2203,0.26847 -0.2685,0.22033 -0.3063,0.16372 -0.3323,0.10082 -0.3457,0.034 -0.3456,-0.034 -0.3323,-0.10082 -0.3063,-0.16372 -0.2685,-0.22033 -0.2203,-0.26847 -0.1638,-0.30629 -0.1008,-0.33235 -0.034,-0.34564 -5.3149,0 -0.034,0.34564 -0.1008,0.33235 -0.1638,0.30629 -0.2203,0.26847 -0.2685,0.22033 -0.3063,0.16372 -0.3323,0.10082 -0.3456,0.034 -0.3457,-0.034 -0.3323,-0.10082 -0.3063,-0.16372 -0.2685,-0.22033 -0.2203,-0.26847 -0.1637,-0.30629 -0.1008,-0.33235 -0.034,-0.34564 0.034,-0.34563 0.1008,-0.33235 0.1637,-0.30629 0.2203,-0.26847 0.2685,-0.22033 0.3063,-0.16372 0.3323,-0.10082 0.3457,-0.034 0,-15.94488 -35.4331,0 0,35.43307 194.8819,0 0,-35.43307 -26.5748,0 0,15.94488 0.3456,0.034 0.3324,0.10082 0.3063,0.16372 0.2684,0.22033 0.2204,0.26847 0.1637,0.30629 0.1008,0.33235 0.034,0.34563 -0.034,0.34564 -0.1008,0.33235 -0.1637,0.30629 -0.2204,0.26847 -0.2684,0.22033 -0.3063,0.16372 -0.3324,0.10082 -0.3456,0.034 -0.3457,-0.034 -0.3323,-0.10082 -0.3063,-0.16372 -0.2685,-0.22033 -0.2203,-0.26847 -0.1637,-0.30629 -0.1008,-0.33235 -0.034,-0.34564 0,0 z"
       inkscape:connector-curvature="0" />
    <path
       id="path3472-9"
       style="fill:none;stroke:#000000"
       d="m 1078.2839,443.50779 0,35.43308 194.8819,0 0,-35.43308 -26.5748,0 0,15.94489 0.3456,0.034 0.3324,0.10082 0.3063,0.16371 0.2685,0.22033 0.2203,0.26847 0.1637,0.3063 0.1008,0.33235 0.034,0.34563 -0.034,0.34563 -0.1008,0.33235 -0.1637,0.3063 -0.2203,0.26847 -0.2685,0.22033 -0.3063,0.16371 -0.3324,0.10082 -0.3456,0.034 -0.3456,-0.034 -0.3324,-0.10082 -0.3063,-0.16371 -0.2684,-0.22033 -0.2204,-0.26847 -0.1637,-0.3063 -0.1008,-0.33235 -0.034,-0.34563 -5.315,0 -0.034,0.34563 -0.1008,0.33235 -0.1637,0.3063 -0.2203,0.26847 -0.2685,0.22033 -0.3063,0.16371 -0.3323,0.10082 -0.3457,0.034 -0.3456,-0.034 -0.3324,-0.10082 -0.3063,-0.16371 -0.2684,-0.22033 -0.2204,-0.26847 -0.1637,-0.3063 -0.1008,-0.33235 -0.034,-0.34563 0.034,-0.34563 0.1008,-0.33235 0.1637,-0.3063 0.2204,-0.26847 0.2684,-0.22033 0.3063,-0.16371 0.3324,-0.10082 0.3456,-0.034 0,-15.94489 -115.1575,0 0,15.94489 0.3457,0.034 0.3323,0.10082 0.3063,0.16371 0.2685,0.22033 0.2203,0.26847 0.1637,0.3063 0.1009,0.33235 0.034,0.34563 -0.034,0.34563 -0.1009,0.33235 -0.1637,0.3063 -0.2203,0.26847 -0.2685,0.22033 -0.3063,0.16371 -0.3323,0.10082 -0.3457,0.034 -0.3456,-0.034 -0.3323,-0.10082 -0.3063,-0.16371 -0.2685,-0.22033 -0.2203,-0.26847 -0.1638,-0.3063 -0.1008,-0.33235 -0.034,-0.34563 -5.3149,0 -0.034,0.34563 -0.1008,0.33235 -0.1638,0.3063 -0.2203,0.26847 -0.2685,0.22033 -0.3063,0.16371 -0.3323,0.10082 -0.3456,0.034 -0.3457,-0.034 -0.3323,-0.10082 -0.3063,-0.16371 -0.2685,-0.22033 -0.2203,-0.26847 -0.1637,-0.3063 -0.1008,-0.33235 -0.034,-0.34563 0.034,-0.34563 0.1008,-0.33235 0.1637,-0.3063 0.2203,-0.26847 0.2685,-0.22033 0.3063,-0.16371 0.3323,-0.10082 0.3457,-0.034 0,-15.94489 -35.4331,0 0,0 z"
       inkscape:connector-curvature="0" />
    <path
       id="path3474-3"
       style="fill:none;stroke:#000000"
       d="m 873.4268,492.14221 0,35.43308 194.8819,0 0,-35.43308 -26.5748,0 0,15.94488 0.3456,0.034 0.3324,0.10082 0.3062,0.16372 0.2685,0.22032 0.2203,0.26847 0.1638,0.3063 0.1008,0.33236 0.034,0.34563 -0.034,0.34563 -0.1008,0.33235 -0.1638,0.3063 -0.2203,0.26847 -0.2685,0.22033 -0.3062,0.16372 -0.3324,0.10081 -0.3456,0.034 -0.3457,-0.034 -0.3323,-0.10081 -0.3063,-0.16372 -0.2685,-0.22033 -0.2203,-0.26847 -0.1637,-0.3063 -0.1009,-0.33235 -0.034,-0.34563 -5.315,0 -0.034,0.34563 -0.1008,0.33235 -0.1637,0.3063 -0.2204,0.26847 -0.2684,0.22033 -0.3063,0.16372 -0.3324,0.10081 -0.3456,0.034 -0.3457,-0.034 -0.3323,-0.10081 -0.3063,-0.16372 -0.2685,-0.22033 -0.2203,-0.26847 -0.1637,-0.3063 -0.1008,-0.33235 -0.034,-0.34563 0.034,-0.34563 0.1008,-0.33236 0.1637,-0.3063 0.2203,-0.26847 0.2685,-0.22032 0.3063,-0.16372 0.3323,-0.10082 0.3457,-0.034 0,-15.94488 -115.1575,0 0,15.94488 0.3456,0.034 0.3324,0.10082 0.3063,0.16372 0.2684,0.22032 0.2204,0.26847 0.1637,0.3063 0.1008,0.33236 0.034,0.34563 -0.034,0.34563 -0.1008,0.33235 -0.1637,0.3063 -0.2204,0.26847 -0.2684,0.22033 -0.3063,0.16372 -0.3324,0.10081 -0.3456,0.034 -0.3456,-0.034 -0.3324,-0.10081 -0.3063,-0.16372 -0.2685,-0.22033 -0.2203,-0.26847 -0.1637,-0.3063 -0.1008,-0.33235 -0.034,-0.34563 -5.315,0 -0.034,0.34563 -0.1008,0.33235 -0.1637,0.3063 -0.2203,0.26847 -0.2685,0.22033 -0.3063,0.16372 -0.3324,0.10081 -0.3456,0.034 -0.3456,-0.034 -0.3324,-0.10081 -0.3063,-0.16372 -0.2684,-0.22033 -0.2204,-0.26847 -0.1637,-0.3063 -0.1008,-0.33235 -0.034,-0.34563 0.034,-0.34563 0.1008,-0.33236 0.1637,-0.3063 0.2204,-0.26847 0.2684,-0.22032 0.3063,-0.16372 0.3324,-0.10082 0.3456,-0.034 0,-15.94488 -35.4331,0 0,0 z"
       inkscape:connector-curvature="0" />
    <path
       id="path3478-0"
       style="fill:none;stroke:#000000"
       d="m 869.7485,536.07922 0,35.43308 194.8819,0 0,-35.43308 -26.5748,0 0,15.94489 0.3456,0.034 0.3324,0.10082 0.3063,0.16371 0.2684,0.22033 0.2204,0.26847 0.1637,0.3063 0.1008,0.33235 0.034,0.34563 -0.034,0.34563 -0.1008,0.33235 -0.1637,0.3063 -0.2204,0.26847 -0.2684,0.22033 -0.3063,0.16371 -0.3324,0.10082 -0.3456,0.034 -0.3457,-0.034 -0.3323,-0.10082 -0.3063,-0.16371 -0.2685,-0.22033 -0.2203,-0.26847 -0.1637,-0.3063 -0.1008,-0.33235 -0.034,-0.34563 -5.315,0 -0.034,0.34563 -0.1008,0.33235 -0.1637,0.3063 -0.2204,0.26847 -0.2684,0.22033 -0.3063,0.16371 -0.3324,0.10082 -0.3456,0.034 -0.3456,-0.034 -0.3324,-0.10082 -0.3063,-0.16371 -0.2685,-0.22033 -0.2203,-0.26847 -0.1637,-0.3063 -0.1008,-0.33235 -0.034,-0.34563 0.034,-0.34563 0.1008,-0.33235 0.1637,-0.3063 0.2203,-0.26847 0.2685,-0.22033 0.3063,-0.16371 0.3324,-0.10082 0.3456,-0.034 0,-15.94489 -115.1575,0 0,15.94489 0.3456,0.034 0.3324,0.10082 0.3063,0.16371 0.2685,0.22033 0.2203,0.26847 0.1637,0.3063 0.1008,0.33235 0.034,0.34563 -0.034,0.34563 -0.1008,0.33235 -0.1637,0.3063 -0.2203,0.26847 -0.2685,0.22033 -0.3063,0.16371 -0.3324,0.10082 -0.3456,0.034 -0.3456,-0.034 -0.3324,-0.10082 -0.3063,-0.16371 -0.2684,-0.22033 -0.2204,-0.26847 -0.1637,-0.3063 -0.1008,-0.33235 -0.034,-0.34563 -5.315,0 -0.034,0.34563 -0.1008,0.33235 -0.1637,0.3063 -0.2203,0.26847 -0.2685,0.22033 -0.3063,0.16371 -0.3323,0.10082 -0.3457,0.034 -0.3456,-0.034 -0.3324,-0.10082 -0.3063,-0.16371 -0.2684,-0.22033 -0.2204,-0.26847 -0.1637,-0.3063 -0.1008,-0.33235 -0.034,-0.34563 0.034,-0.34563 0.1008,-0.33235 0.1637,-0.3063 0.2204,-0.26847 0.2684,-0.22033 0.3063,-0.16371 0.3324,-0.10082 0.3456,-0.034 0,-15.94489 -35.433,0 0,0 z"
       inkscape:connector-curvature="0" />
    <path
       id="path3480-6"
       style="fill:none;stroke:#000000"
       d="m 1022.1099,602.74752 0.3324,0.10082 0.3063,0.16371 0.2684,0.22033 0.2204,0.26847 0.1637,0.3063 0.1008,0.33235 0.034,0.34563 -0.034,0.34563 -0.1008,0.33235 -0.1637,0.3063 -0.2204,0.26847 -0.2684,0.22033 -0.3063,0.16371 -0.3324,0.10082 -0.3456,0.034 -0.3456,-0.034 -0.3324,-0.10082 -0.3063,-0.16371 -0.2685,-0.22033 -0.2203,-0.26847 -0.1637,-0.3063 -0.1008,-0.33235 -0.034,-0.34563 -5.3149,0 -0.034,0.34563 -0.1008,0.33235 -0.1637,0.3063 -0.2203,0.26847 -0.2685,0.22033 -0.3063,0.16371 -0.3323,0.10082 -0.3457,0.034 -0.3456,-0.034 -0.3324,-0.10082 -0.3063,-0.16371 -0.2684,-0.22033 -0.2203,-0.26847 -0.1638,-0.3063 -0.1008,-0.33235 -0.034,-0.34563 0.034,-0.34563 0.1008,-0.33235 0.1638,-0.3063 0.2203,-0.26847 0.2684,-0.22033 0.3063,-0.16371 0.3324,-0.10082 0.3456,-0.034 0,-15.94489 -35.43297,0 0,35.43308 194.88177,0 0,-35.43308 -26.5748,0 0,15.94489 0.3457,0.034 0.3323,0.10082 0.3063,0.16371 0.2685,0.22033 0.2203,0.26847 0.1637,0.3063 0.1009,0.33235 0.034,0.34563 -0.034,0.34563 -0.1009,0.33235 -0.1637,0.3063 -0.2203,0.26847 -0.2685,0.22033 -0.3063,0.16371 -0.3323,0.10082 -0.3457,0.034 -0.3456,-0.034 -0.3323,-0.10082 -0.3063,-0.16371 -0.2685,-0.22033 -0.2203,-0.26847 -0.1638,-0.3063 -0.1008,-0.33235 -0.034,-0.34563 -5.315,0 -0.034,0.34563 -0.1008,0.33235 -0.1638,0.3063 -0.2203,0.26847 -0.2684,0.22033 -0.3063,0.16371 -0.3324,0.10082 -0.3456,0.034 -0.3457,-0.034 -0.3323,-0.10082 -0.3063,-0.16371 -0.2685,-0.22033 -0.2203,-0.26847 -0.1637,-0.3063 -0.1008,-0.33235 -0.034,-0.34563 0.034,-0.34563 0.1008,-0.33235 0.1637,-0.3063 0.2203,-0.26847 0.2685,-0.22033 0.3063,-0.16371 0.3323,-0.10082 0.3457,-0.034 0,-15.94489 -115.1575,0 0,15.94489 0.3456,0.034 0,0 z"
       inkscape:connector-curvature="0" />
    <path
       id="path3482-2"
       style="fill:none;stroke:#000000"
       d="m 1256.8304,271.29877 0,5.31496 0.3456,0.034 0.3323,0.10082 0.3063,0.16372 0.2685,0.22033 0.2203,0.26847 0.1637,0.30629 0.1009,0.33235 0.034,0.34564 -0.034,0.34563 -0.1009,0.33235 -0.1637,0.30629 -0.2203,0.26847 -0.2685,0.22033 -0.3063,0.16372 -0.3323,0.10082 -0.3456,0.034 -0.3457,-0.034 -0.3323,-0.10082 -0.3063,-0.16372 -0.2685,-0.22033 -0.2203,-0.26847 -0.1637,-0.30629 -0.1009,-0.33235 -0.034,-0.34563 -15.9448,0 0,115.15748 15.9448,0 0.034,-0.3456 0.1009,-0.3324 0.1637,-0.3063 0.2203,-0.2684 0.2685,-0.2204 0.3063,-0.1637 0.3323,-0.1008 0.3457,-0.034 0.3456,0.034 0.3323,0.1008 0.3063,0.1637 0.2685,0.2204 0.2203,0.2684 0.1637,0.3063 0.1009,0.3324 0.034,0.3456 -0.034,0.3456 -0.1009,0.3324 -0.1637,0.3063 -0.2203,0.2684 -0.2685,0.2204 -0.3063,0.1637 -0.3323,0.1008 -0.3456,0.034 0,5.315 0.3456,0.034 0.3323,0.1008 0.3063,0.1637 0.2685,0.2203 0.2203,0.2685 0.1637,0.3063 0.1009,0.3324 0.034,0.3456 -0.034,0.3456 -0.1009,0.3324 -0.1637,0.3063 -0.2203,0.2684 -0.2685,0.2204 -0.3063,0.1637 -0.3323,0.1008 -0.3456,0.034 -0.3457,-0.034 -0.3323,-0.1008 -0.3063,-0.1637 -0.2685,-0.2204 -0.2203,-0.2684 -0.1637,-0.3063 -0.1009,-0.3324 -0.034,-0.3456 -15.9448,0 0,35.433 35.433,0 0,-194.88184 -35.433,0 0,26.57481 15.9448,0 0.034,-0.34563 0.1009,-0.33235 0.1637,-0.3063 0.2203,-0.26847 0.2685,-0.22033 0.3063,-0.16372 0.3323,-0.10081 0.3457,-0.0341 0.3456,0.0341 0.3323,0.10081 0.3063,0.16372 0.2685,0.22033 0.2203,0.26847 0.1637,0.3063 0.1009,0.33235 0.034,0.34563 -0.034,0.34563 -0.1009,0.33235 -0.1637,0.30629 -0.2203,0.26847 -0.2685,0.22033 -0.3063,0.16372 -0.3323,0.10082 -0.3456,0.034 0,0 z"
       inkscape:connector-curvature="0" />
  </g>
</svg>
